<svg class="svg-box svg-reddit" viewBox="0 0 60 60"><path d="M0 0h60v60h-60z"></path>
<path d="M38.1 22c0 .9.7 1.6 1.6 1.6.9 0 1.6-.7 1.6-1.6 0-.9-.7-1.6-1.6-1.6-.8 0-1.6.7-1.6 1.6zm-.1-.9l-5.4-1.1c-.2 0-.5.1-.5.3l-2.1 5.7h1l1.8-5.1 5 1 .2-.8zm-18.9 11.4c.4-1.5 1.5-2.9 3-4-.4-.4-1-.6-1.6-.6-1.4 0-2.5 1.1-2.5 2.5 0 .8.4 1.6 1.1 2.1zm22.5 1.3c0-3.9-4.9-7-10.9-7s-10.9 3.1-10.9 7 4.9 7 10.9 7 10.9-3.1 10.9-7zm1.9-3.4c0-1.4-1.1-2.5-2.5-2.5-.6 0-1.2.3-1.7.7 1.5 1.1 2.6 2.5 3 4 .7-.5 1.2-1.3 1.2-2.2z"></path>
<circle cx="34.7" cy="32.4" r="1.7"></circle>
<circle cx="26.7" cy="32.4" r="1.7"></circle>
<path d="M34.4 36.9c-.7.7-1.9 1.1-3.6 1.1-1.7 0-2.9-.3-3.6-1.1-.2-.2-.4-.2-.6 0s-.2.4 0 .6c.9.9 2.2 1.3 4.2 1.3 1.9 0 3.3-.4 4.2-1.3.2-.2.2-.4 0-.6-.2-.1-.5-.1-.6 0z"></path></svg>
