<svg class="svg-box" viewBox="0 0 60 60"><path d="M0 0h60v60h-60z"></path>
<path d="M30 21c-5 0-9 4-9 9 0 3.7 2.2 6.8 5.4 8.2 0-.6 0-1.4.2-2.1.2-.7 1.2-4.9 1.2-4.9s-.3-.6-.3-1.4c0-1.3.8-2.3 1.7-2.3.8 0 1.2.6 1.2 1.4 0 .8-.5 2.1-.8 3.2-.2 1 .5 1.7 1.4 1.7 1.7 0 2.9-2.2 2.9-4.8 0-2-1.3-3.4-3.7-3.4-2.7 0-4.4 2-4.4 4.3 0 .8.2 1.3.6 1.8.2.2.2.3.1.5 0 .2-.1.6-.2.7-.1.2-.2.3-.5.2-1.3-.5-1.8-1.9-1.8-3.4 0-2.6 2.2-5.6 6.4-5.6 3.4 0 5.7 2.5 5.7 5.2 0 3.5-2 6.2-4.9 6.2-1 0-1.9-.5-2.2-1.1 0 0-.5 2.1-.6 2.5-.2.7-.6 1.4-.9 1.9.8.2 1.7.4 2.5.4 5 0 9-4 9-9 0-5.2-4-9.2-9-9.2z"></path></svg>
