<svg class="svg-box" viewBox="0 0 60 60"><path d="M0 0h60v60h-60z"></path>
<path d="M38 25v-3h-1v3h-3v1h3v3h1v-3h3v-1zM32.2 21h-5s-4.8.1-4.8 4.4c0 4.3 4.7 3.8 4.7 3.8v1.1c0 .4.4.3.4 1.2-.3 0-6.4-.2-6.4 3.8 0 3.9 5.2 3.7 5.2 3.7s6 .3 6-4.6c0-2.9-3.4-3.8-3.4-5 0-1.2 2.6-1.5 2.6-4.3 0-1.7-.2-2.6-1.5-3.2-.1-.4 2.2-.1 2.2-.9zm-1.6 13.8c.1 1.5-1.5 2.9-3.6 3-2.1.1-3.8-1-3.9-2.5-.1-1.5 1.5-2.9 3.6-3 2-.2 3.8.9 3.9 2.5zm-3.1-6.6c-1.2.3-2.6-.8-3.1-2.5s.1-3.4 1.4-3.7c1.2-.3 2.6.8 3.1 2.5s-.2 3.4-1.4 3.7z"></path></svg>
