<?xml version="1.0" standalone="no"?> <!DOCTYPE svg PUBLIC "-//W3C//DTD SVG 1.0//EN" "http://www.w3.org/TR/2001/REC-SVG-20010904/DTD/svg10.dtd" > <svg xmlns="http://www.w3.org/2000/svg" width="100%" height="100%">
<defs >
<font horiz-adv-x="672" ><font-face
    font-family=""
    units-per-em="1000"
    panose-1="2 0 0 0 0 0 0 0 0 0"
    ascent="817"
    descent="-183"
    alphabetic="0" />
<missing-glyph horiz-adv-x="500" />
<glyph unicode=" " glyph-name="space" horiz-adv-x="640" />
<glyph unicode="!" glyph-name="exclam" horiz-adv-x="640" d="M243 788H397L374 254H265L243 788ZM238 0V164H402V0H238Z" />
<glyph unicode="&quot;" glyph-name="quotedbl" horiz-adv-x="640" d="M345 765H504L472 473H378L345 765ZM386 765H545L513 473H419L386 765Z" />
<glyph unicode="#" glyph-name="numbersign" horiz-adv-x="640" d="M390 516H268L246 372H369L390 516ZM207 99H124L152 290H48V372H164L185 516H78V598H197L221 764H304L280 598H402L426 764H509L485 598H591V516H473L452 372H561V290H440L412 99H329L357 290H235L207
99Z" />
<glyph unicode="$" glyph-name="dollar" horiz-adv-x="640" d="M284 648Q238 640 217 613T195 547Q195 503 215 481T284 447V648ZM352 95Q409 103 433 131T457 200Q457 245 433 271T350 308V95H352ZM284 -116V-10Q170 -3 111 53T40 213H175Q181 167 205 135T284
95V321L244 329Q158 346 110 396T62 538Q62 581 78 617T123 680T193 725T284 747V828H350V747Q454 739 510 686T574 539H439Q434 576 415 606T350 647V434L399 424Q496 405 544 356T593 219Q593 116 531 57T350 -10V-116H284Z" />
<glyph unicode="%" glyph-name="percent" horiz-adv-x="640" d="M531 774H617L114 0H28L531 774ZM15 598Q15 642 27 674T61 729T110 761T170 772Q201 772 229 762T278 729T311 675T324 598Q324 554 312 521T278 466T229 433T170 422Q138 422 110 433T60 466T27
521T15 598ZM169 698Q110 698 110 598Q110 498 169 498Q197 498 213 523T229 598Q229 648 213 673T169 698ZM472 -7Q440 -7 412 4T362 37T329 91T317 168Q317 212 329 245T363 299T413 332T472 343Q503 343 531 332T580 300T613 245T626 168Q626 124 614 92T580
37T531 4T472 -7ZM471 69Q499 69 515 94T531 168Q531 219 515 244T471 269Q412 269 412 168Q412 69 471 69Z" />
<glyph unicode="&amp;" glyph-name="ampersand" horiz-adv-x="640" d="M202 608Q202 588 206 573T218 542T238 510T265 475Q289 492 307 507T338 539T358 573T365 614Q365 652 344 673T287 695Q247 695 225 671T202 608ZM217 335Q182 309 169 280T156 216Q156
149 191 119T283 88Q315 88 341 98T387 126L383 131L222 339L217 335ZM578 0Q535 0 508 10T455 46Q420 17 374 0T268 -17Q209 -17 164 -1T88 44T41 113T25 203Q25 276 60 324T162 415Q141 443 126 465T100 509T85 553T80 604Q80 643 94 676T134 734T199 773T286
787Q333 787 369 774T431 738T470 684T483 616Q483 580 473 552T442 498T393 451T326 403L451 242Q461 277 467 317T477 402H594Q591 343 577 274T530 142Q540 131 549 124T567 114T589 109T619 108V0H578Z" />
<glyph unicode="&apos;" glyph-name="quotesingle" horiz-adv-x="640" d="M245 765H404L372 473H278L245 765Z" />
<glyph unicode="(" glyph-name="parenleft" horiz-adv-x="640" d="M390 -130Q348 -90 313 -44T251 58T211 181T196 329Q196 410 210 476T251 598T312 700T390 788H521Q480 747 444 700T381 596T339 473T323 329Q323 251 339 184T382 59T445 -45T521 -130H390Z" />
<glyph unicode=")" glyph-name="parenright" horiz-adv-x="640" d="M250 788Q292 748 327 702T389 600T429 477T444 329Q444 248 430 182T389 60T328 -42T250 -130H119Q160 -89 196 -42T259 62T301 185T317 329Q317 407 301 474T258 599T195 703T119 788H250Z" />
<glyph unicode="*" glyph-name="asterisk" horiz-adv-x="640" d="M317 438L213 273L118 344L251 489L250 493L66 540L103 652L276 570L278 571L260 765H379L359 570L362 569L536 652L574 541L388 494L387 490L519 344L425 273L320 438H317Z" />
<glyph unicode="+" glyph-name="plus" horiz-adv-x="640" d="M374 112H265V307H75V409H265V602H374V409H565V307H374V112Z" />
<glyph unicode="," glyph-name="comma" horiz-adv-x="640" d="M211 -121L260 164H427L314 -121H211Z" />
<glyph unicode="-" glyph-name="hyphen" horiz-adv-x="640" d="M151 379H489V257H151V379Z" />
<glyph unicode="." glyph-name="period" horiz-adv-x="640" d="M238 164H402V0H238V164Z" />
<glyph unicode="/" glyph-name="slash" horiz-adv-x="640" d="M481 788H589L135 -130H26L481 788Z" />
<glyph unicode="0" glyph-name="zero" horiz-adv-x="640" d="M57 367Q57 562 123 656T320 750Q454 750 518 656T583 367Q583 174 519 79T320 -16Q57 -16 57 367ZM320 92Q384 92 411 158T438 366Q438 509 411 576T320 643Q256 643 229 577T202 366Q202 293 208
241T229 156T265 108T320 92Z" />
<glyph unicode="1" glyph-name="one" horiz-adv-x="640" d="M88 0V107H271V521H98V614H149Q185 614 210 621T255 647Q272 663 280 686T288 744H409V107H587V0H88Z" />
<glyph unicode="2" glyph-name="two" horiz-adv-x="640" d="M68 487Q67 545 84 594T134 678T217 732T328 752Q392 752 438 735T515 688T559 620T574 542Q574 503 567 470T543 407T499 345T434 277L340 189Q318 168 302 154T275 132Q263 122 254 116V112H581V0H65V93L323
340Q351 367 373 390T409 436T431 482T439 533Q439 585 409 614T326 643Q299 643 276 634T237 606T211 558T202 486L68 487Z" />
<glyph unicode="3" glyph-name="three" horiz-adv-x="640" d="M252 323V429H316Q368 429 400 457T433 537Q433 585 404 614T323 644Q265 644 234 614T199 524H70Q71 567 86 608T131 681T210 732T326 752Q383 752 427 737T501 696T546 634T562 560Q562 494 530
453T438 387V385Q468 377 494 363T540 326T570 273T581 203Q581 159 564 120T514 50T432 3T320 -15Q251 -15 203 4T124 54T78 127T60 213H191Q197 153 233 123T323 93Q350 93 373 101T413 124T441 162T451 211Q451 265 419 294T325 323H252Z" />
<glyph unicode="4" glyph-name="four" horiz-adv-x="640" d="M374 277V631H368Q364 620 359 607Q354 596 346 580T327 545L171 277H374ZM496 168V0H372V168H43V267L315 741H496V279H596V168H496Z" />
<glyph unicode="5" glyph-name="five" horiz-adv-x="640" d="M190 208Q196 149 229 120T315 91Q343 91 367 100T410 127T438 173T449 241Q449 313 414 350T321 387Q280 387 252 372T204 329H82L100 741H539V628H213L204 432H209Q233 458 269 474T358 490Q407 490
448 475T520 429T568 352T585 246Q585 190 568 143T517 60T433 5T318 -15Q248 -15 200 4T121 54T76 126T58 208H190Z" />
<glyph unicode="6" glyph-name="six" horiz-adv-x="640" d="M446 563Q439 601 414 624T344 647Q306 647 279 629T235 579T209 501T198 400H204Q228 436 270 456T369 476Q408 476 447 463T517 422T569 349T589 240Q589 189 572 143T522 61T440 6T325 -15Q267 -15
219 3T135 63T79 170T59 332Q59 441 78 520T133 650T222 727T342 752Q397 752 438 738T509 699T554 640T575 563H446ZM332 92Q385 92 419 128T454 237Q454 306 421 342T332 379Q275 379 242 343T208 237Q208 165 243 129T332 92Z" />
<glyph unicode="7" glyph-name="seven" horiz-adv-x="640" d="M428 627H59V741H576V645L275 0H132L428 627Z" />
<glyph unicode="8" glyph-name="eight" horiz-adv-x="640" d="M71 549Q71 591 87 628T136 692T214 736T320 752Q380 752 426 736T504 693T552 628T569 549Q569 483 535 440T452 380V377Q479 370 504 356T549 321T581 269T593 199Q593 152 575 113T521 45T436 0T320
-17Q255 -17 205 -1T119 43T66 112T48 199Q48 238 60 268T91 320T136 356T188 377V380Q140 396 106 439T71 549ZM320 652Q272 652 238 624T204 537Q204 508 213 487T238 451T275 429T320 421Q344 421 365 428T401 450T426 486T436 537Q436 567 427 588T402 624T365
645T320 652ZM320 82Q348 82 373 89T416 112T445 150T456 204Q456 235 446 258T417 296T373 318T320 325Q293 325 269 318T226 296T197 258T186 204Q186 173 196 150T225 112T268 90T320 82Z" />
<glyph unicode="9" glyph-name="nine" horiz-adv-x="640" d="M312 646Q289 646 267 638T227 613T200 570T189 507Q189 473 199 448T225 405T264 379T311 370Q366 370 402 404T438 507Q438 543 428 569T399 612T359 637T312 646ZM194 179Q204 132 233 111T308 89Q375
89 411 151T447 350H442Q420 315 380 294T286 273Q242 273 200 286T126 328T75 401T55 505Q55 557 72 602T123 680T203 733T309 752Q372 752 423 732T510 669T565 560T585 403Q585 290 566 211T510 81T422 8T305 -15Q207 -15 143 33T66 179H194Z" />
<glyph unicode=":" glyph-name="colon" horiz-adv-x="640" d="M238 369V533H402V369H238ZM238 0V164H402V0H238Z" />
<glyph unicode=";" glyph-name="semicolon" horiz-adv-x="640" d="M247 369V533H411V369H247ZM195 -121L244 164H411L298 -121H195Z" />
<glyph unicode="&lt;" glyph-name="less" horiz-adv-x="640" d="M68 299V367L554 612V497L223 335L554 172V55L68 299Z" />
<glyph unicode="=" glyph-name="equal" horiz-adv-x="640" d="M75 505H565V404H75V505ZM75 207V308H565V207H75Z" />
<glyph unicode="&gt;" glyph-name="greater" horiz-adv-x="640" d="M571 368V300L85 55V170L416 332L85 495V612L571 368Z" />
<glyph unicode="?" glyph-name="question" horiz-adv-x="640" d="M436 584Q436 630 407 658T325 687Q268 687 231 651T195 533H63Q61 591 78 639T129 722T212 776T324 796Q389 796 435 779T512 734T556 667T570 587Q570 551 562 523T541 474T511 435T476 403L410
348Q400 339 394 332T384 317T379 300T377 277V250H257V299Q257 323 259 339T267 369T287 395T322 426L372 468Q402 493 419 518T436 584ZM236 0V164H400V0H236Z" />
<glyph unicode="@" glyph-name="at" horiz-adv-x="640" d="M347 -124Q191 -124 121 -36T51 237V322Q51 432 78 510Q107 596 173 638T334 681Q397 681 444 662T524 606T572 520T589 409V81H503V144H498Q482 109 452 89T372 69Q338 69 310 80T260 117T227 181T215
275Q215 375 258 429T376 483Q425 483 453 463T495 416H499Q499 455 490 489T462 549T411 590T336 605Q270 605 229 577T168 496Q154 461 148 415T141 315V259Q141 187 150 131T183 36T249 -23T357 -44Q391 -44 419 -39T472 -26V-104Q412 -124 347 -124ZM405 150Q442
150 465 179T488 252V288Q488 339 465 368T407 398Q365 398 348 366T330 275Q330 219 345 185T405 150Z" />
<glyph unicode="A" glyph-name="A" horiz-adv-x="640" d="M310 654Q310 652 308 637T302 599T293 547T281 489L238 295H394L350 489Q343 519 338 549T330 602Q326 629 323 654H310ZM419 190H214L168 0H34L223 765H416L606 0H465L419 190Z" />
<glyph unicode="B" glyph-name="B" horiz-adv-x="640" d="M73 0V765H319Q440 765 503 718T567 573Q567 539 557 512T528 464T486 431T433 411V407Q506 395 551 346T597 222Q597 163 577 121T519 52T430 13T315 0H73ZM300 445Q356 445 392 471T428 561Q428 612
397 638T307 665H212V445H300ZM308 102Q378 102 416 130T454 232Q454 294 416 322T303 350H212V102H308Z" />
<glyph unicode="C" glyph-name="C" horiz-adv-x="640" d="M457 517Q450 584 423 625T333 666Q292 666 265 649T221 596T198 506T191 379Q191 307 197 254T220 165T265 112T336 94Q399 94 425 137T457 252H595Q592 192 574 143T522 58T442 3T334 -16Q256 -16 202
9T114 83T64 205T48 375Q48 471 64 546T114 672T203 749T334 776Q452 776 520 708T595 517H457Z" />
<glyph unicode="D" glyph-name="D" horiz-adv-x="640" d="M63 765H248Q332 765 397 745T506 679T574 561T597 384Q597 188 509 94T251 0H63V765ZM250 111Q299 111 336 125T398 171T437 255T450 383Q450 459 437 511T399 595T338 642T254 656H202V111H250Z" />
<glyph unicode="E" glyph-name="E" horiz-adv-x="640" d="M95 765H563V654H234V438H533V328H234V111H571V0H95V765Z" />
<glyph unicode="F" glyph-name="F" horiz-adv-x="640" d="M246 0H108V765H578V654H246V418H552V307H246V0Z" />
<glyph unicode="G" glyph-name="G" horiz-adv-x="640" d="M332 669Q290 669 262 651T218 596T194 505T187 379Q187 306 194 252T217 163T261 110T330 92Q365 92 390 104T431 139T455 192T463 259V294H319V400H590V0H481V80H474Q453 38 413 11T309 -16Q173 -16
110 81T46 363Q46 565 116 670T335 776Q395 776 441 758T518 708T567 634T586 543H452Q450 569 442 592T420 632T383 659T332 669Z" />
<glyph unicode="H" glyph-name="H" horiz-adv-x="640" d="M202 0H63V765H202V439H438V765H577V0H438V328H202V0Z" />
<glyph unicode="I" glyph-name="I" horiz-adv-x="640" d="M389 107H550V0H90V107H251V658H90V765H550V658H389V107Z" />
<glyph unicode="J" glyph-name="J" horiz-adv-x="640" d="M252 -10Q199 -10 161 -4T93 7V120Q122 115 161 111T250 106Q310 106 346 135T382 226V657H139V765H520V217Q520 159 499 116T441 45T356 4T252 -10Z" />
<glyph unicode="K" glyph-name="K" horiz-adv-x="640" d="M204 0H68V765H204V435L456 765H606L355 440L621 0H461L260 335L204 263V0Z" />
<glyph unicode="L" glyph-name="L" horiz-adv-x="640" d="M104 765H243V115H590V0H104V765Z" />
<glyph unicode="M" glyph-name="M" horiz-adv-x="640" d="M63 765H223L291 480Q297 454 301 425T310 372Q314 344 318 316H326Q329 344 333 372Q337 396 342 425T353 480L421 765H577V0H456V577H447Q444 553 440 527Q437 505 433 480T424 435L371 193H264L211
434Q206 455 202 479T195 526Q191 552 189 577H180V0H63V765Z" />
<glyph unicode="N" glyph-name="N" horiz-adv-x="640" d="M63 765H228L414 309Q422 287 428 268T440 233Q445 215 449 199H457V765H577V0H412L226 456Q216 479 210 498T199 533Q194 551 190 566H183V0H63V765Z" />
<glyph unicode="O" glyph-name="O" horiz-adv-x="640" d="M44 380Q44 585 113 680T320 776Q464 776 530 682T596 380Q596 175 529 80T320 -16Q174 -16 109 79T44 380ZM320 92Q356 92 380 107T420 156T442 245T449 380Q449 461 442 516T419 606T379 654T320 669Q284
669 260 654T220 605T199 516T192 380Q192 300 198 246T220 157T259 107T320 92Z" />
<glyph unicode="P" glyph-name="P" horiz-adv-x="640" d="M222 269V0H83V765H317Q381 765 432 752T520 709T575 633T595 520Q595 452 575 405T516 327T425 283T305 269H222ZM311 380Q379 380 416 413T454 519Q454 595 418 625T313 656H222V380H311Z" />
<glyph unicode="Q" glyph-name="Q" horiz-adv-x="640" d="M493 49Q544 35 575 3T627 -89L510 -137Q489 -77 459 -44T383 -10Q372 -10 356 -11T321 -13Q177 -13 111 81T44 380Q44 586 112 681T321 776Q463 776 529 682T596 380Q596 305 588 250T566 156T533 93T493
53V49ZM320 670Q284 670 260 655T220 606T199 516T192 380Q192 300 198 245T219 156T258 107T320 92Q353 92 377 104T417 149T441 237T449 380Q449 461 442 516T420 606T380 655T320 670Z" />
<glyph unicode="R" glyph-name="R" horiz-adv-x="640" d="M307 413Q368 413 404 442T440 537Q440 603 405 630T310 657H210V413H307ZM299 301H210V0H72V765H314Q359 765 399 758T474 734Q523 709 552 663T581 544Q581 495 568 459T533 396T485 354T434 328V325L598
0H446L299 301Z" />
<glyph unicode="S" glyph-name="S" horiz-adv-x="640" d="M449 558Q447 581 439 601T416 638T378 663T323 672Q268 672 236 643T203 568Q203 520 226 497T302 461L403 438Q503 415 551 364T600 223Q600 110 528 47T323 -16Q193 -16 121 45T42 218H178Q183 164
217 128T324 91Q395 91 428 123T462 204Q462 251 438 277T350 318L252 340Q167 359 117 409T67 555Q67 603 84 643T135 713T217 760T325 777Q450 777 513 719T584 558H449Z" />
<glyph unicode="T" glyph-name="T" horiz-adv-x="640" d="M603 654H389V0H250V654H37V765H603V654Z" />
<glyph unicode="U" glyph-name="U" horiz-adv-x="640" d="M61 765H199V256Q199 176 227 137T322 98Q389 98 417 137T445 256V765H578V243Q578 175 559 126T506 46T425 -1T319 -16Q261 -16 214 -2T132 44T80 125T61 243V765Z" />
<glyph unicode="V" glyph-name="V" horiz-adv-x="640" d="M415 0H226L25 765H170L296 249Q301 229 305 208T312 169Q316 148 318 128H329Q332 148 336 169Q339 187 343 208T352 249L477 765H615L415 0Z" />
<glyph unicode="W" glyph-name="W" horiz-adv-x="640" d="M77 0L30 765H149L181 171H189Q191 194 195 219Q198 240 202 264T211 311L272 592H372L433 311Q438 288 442 264T449 219Q453 194 456 171H464L495 765H610L563 0H400L345 263Q339 291 335 318T327 367Q323
393 320 416H313Q311 393 307 367Q304 345 300 318T289 264L232 0H77Z" />
<glyph unicode="X" glyph-name="X" horiz-adv-x="640" d="M241 391L31 765H182L319 507H321L460 765H600L393 402L619 0H467L314 285H312L159 0H19L241 391Z" />
<glyph unicode="Y" glyph-name="Y" horiz-adv-x="640" d="M251 324L21 765H170L322 461H326L477 765H619L389 327V0H251V324Z" />
<glyph unicode="Z" glyph-name="Z" horiz-adv-x="640" d="M70 765H582V667L210 112H588V0H53V98L426 654H70V765Z" />
<glyph unicode="[" glyph-name="bracketleft" horiz-adv-x="640" d="M198 788H513V695H320V-37H513V-130H198V788Z" />
<glyph unicode="\" glyph-name="backslash" horiz-adv-x="640" d="M52 788H160L614 -130H506L52 788Z" />
<glyph unicode="]" glyph-name="bracketright" horiz-adv-x="640" d="M445 -130H131V-37H324V695H131V788H445V-130Z" />
<glyph unicode="^" glyph-name="asciicircum" horiz-adv-x="640" d="M553 426H439L319 661H316L194 426H87L274 780H368L553 426Z" />
<glyph unicode="_" glyph-name="underscore" horiz-adv-x="640" d="M100 -99H540V-188H100V-99Z" />
<glyph unicode="`" glyph-name="grave" horiz-adv-x="640" d="M311 609L195 788H361L417 609H311Z" />
<glyph unicode="a" glyph-name="a" horiz-adv-x="640" d="M205 155Q205 120 226 103T282 85Q305 85 327 94T367 121T396 168T407 233V240Q336 236 295 232T234 213Q219 202 212 187T205 155ZM413 74Q391 38 351 14T251 -11Q213 -11 181 -2T124 26T85 76T71 150Q71
241 152 284Q173 295 197 302T252 314T321 321T407 326V351Q407 451 314 451Q266 451 245 429T222 375H93Q95 412 110 443T154 497T221 532T312 545Q364 545 405 535T474 500T518 438T533 346V134Q533 116 540 109T566 102H589V0H527Q478 0 452 15T417 74H413Z"
/>
<glyph unicode="b" glyph-name="b" horiz-adv-x="640" d="M76 788H210V454H212Q234 490 274 517T378 545Q424 545 463 530T532 482T577 397T594 270Q594 200 577 147T528 59T456 5T365 -13Q305 -13 268 9T209 65H204V0H76V788ZM334 81Q394 81 425 128T456 269Q456
355 428 402T333 449Q276 449 243 407T209 298V241Q209 207 216 178T239 127T278 93T334 81Z" />
<glyph unicode="c" glyph-name="c" horiz-adv-x="640" d="M437 352Q432 393 407 421T331 450Q297 450 274 436T237 398T216 340T209 269Q209 232 214 199T233 140T270 99T330 84Q359 84 379 93T413 118T433 152T442 189H576Q573 139 553 102T500 38T424 -1T330
-14Q199 -14 135 60T70 266Q70 400 139 473T332 546Q381 546 423 534T498 498T551 438T574 352H437Z" />
<glyph unicode="d" glyph-name="d" horiz-adv-x="640" d="M430 289Q430 365 398 407T310 449Q248 449 216 403T183 265Q183 181 210 131T304 81Q365 81 397 123T430 228V289ZM563 0H435V73H432Q409 35 370 11T270 -14Q220 -14 179 2T108 53T62 138T45 261Q45 331
62 384T111 473T185 527T277 545Q334 545 370 524T426 471H428V788H563V0Z" />
<glyph unicode="e" glyph-name="e" horiz-adv-x="640" d="M437 327Q436 353 429 376T408 416T373 443T324 453Q267 453 238 419T201 321H437V327ZM570 150Q554 75 493 31T327 -14Q261 -14 211 6T128 63T79 151T62 266Q62 326 79 377T130 466T213 525T326 546Q391
546 438 525T516 466T561 380T576 277V228H200Q206 156 237 120T330 83Q356 83 374 88T404 103T424 125T436 150H570Z" />
<glyph unicode="f" glyph-name="f" horiz-adv-x="640" d="M377 0H244V427H67V533H244V601Q244 656 260 692T305 751T370 782T449 792Q490 792 517 788T566 778V673Q543 678 520 681T465 685Q426 685 402 667T377 601V533H566V427H377V0Z" />
<glyph unicode="g" glyph-name="g" horiz-adv-x="640" d="M433 298Q433 369 401 409T311 450Q254 450 221 405T187 276Q187 195 216 149T312 103Q339 103 361 113T400 143T424 187T433 242V298ZM308 -200Q205 -200 141 -159T67 -39H200Q207 -71 233 -88T311 -105Q372
-105 403 -76T434 23V97H431Q411 62 372 37T275 11Q226 11 185 26T113 74T66 155T49 274Q49 340 66 391T114 476T187 527T279 545Q311 545 336 538T381 518T414 490T436 460H438V533H566V34Q566 -84 500 -142T308 -200Z" />
<glyph unicode="h" glyph-name="h" horiz-adv-x="640" d="M423 0V318Q423 347 421 371T407 412Q384 444 337 444Q277 444 250 409T222 312V0H87V788H222V450H223Q231 468 245 485T279 515T325 537T385 545Q475 545 516 499T558 355V0H423Z" />
<glyph unicode="i" glyph-name="i" horiz-adv-x="640" d="M245 770H409V610H245V770ZM78 0V106H263V429H100V533H396V106H578V0H78Z" />
<glyph unicode="j" glyph-name="j" horiz-adv-x="640" d="M312 611V763H468V611H312ZM249 -198Q214 -198 184 -193T132 -182V-79Q152 -83 178 -86T239 -90Q279 -90 302 -71T326 -3V428H132V533H459V-11Q459 -61 442 -96T396 -154T329 -187T249 -198Z" />
<glyph unicode="k" glyph-name="k" horiz-adv-x="640" d="M227 0H96V788H227V289L440 533H589L395 317L607 0H455L306 233L227 144V0Z" />
<glyph unicode="l" glyph-name="l" horiz-adv-x="640" d="M73 0V105H258V684H92V788H391V105H580V0H73Z" />
<glyph unicode="m" glyph-name="m" horiz-adv-x="640" d="M49 533H155V457H159Q170 495 196 520T271 545Q318 545 341 521T373 458H377Q387 495 412 520T488 545Q596 545 596 410V0H479V372Q479 404 471 421T436 439Q382 439 382 350V0H263V372Q263 404 255 421T220
439Q166 439 166 350V0H49V533Z" />
<glyph unicode="n" glyph-name="n" horiz-adv-x="640" d="M423 317Q423 346 421 370T407 412Q384 444 337 444Q277 444 250 409T222 312V0H87V533H215V444H217Q227 464 242 482T278 515T325 537T385 545Q474 545 516 499T558 355V0H423V317Z" />
<glyph unicode="o" glyph-name="o" horiz-adv-x="640" d="M319 -15Q257 -15 208 4T126 60T75 149T57 266Q57 399 126 472T320 546Q443 546 513 473T583 266Q583 200 565 148T512 60T429 5T319 -15ZM320 450Q287 450 264 437T227 399T205 340T198 266Q198 224 205
190T226 132T264 95T320 81Q353 81 376 94T414 133T435 191T442 266Q442 307 435 341T413 399T375 436T320 450Z" />
<glyph unicode="p" glyph-name="p" horiz-adv-x="640" d="M209 241Q209 171 240 126T335 81Q396 81 426 128T456 269Q456 354 429 401T335 449Q307 449 284 438T244 406T218 359T209 298V241ZM76 533H207V445H209Q229 485 271 515T378 545Q423 545 462 530T531
482T577 397T594 270Q594 201 577 149T530 60T458 6T366 -13Q308 -13 270 9T214 61H210V-188H76V533Z" />
<glyph unicode="q" glyph-name="q" horiz-adv-x="640" d="M563 -188H428V72H426Q417 57 403 42T370 14T325 -6T268 -14Q219 -14 178 1T108 50T62 136T45 261Q45 331 62 384T111 473T185 527T278 545Q333 545 372 520T431 457H433V533H563V-188ZM304 81Q365 81
397 123T430 228V289Q430 365 397 407T310 449Q249 449 216 403T183 265Q183 181 210 131T304 81Z" />
<glyph unicode="r" glyph-name="r" horiz-adv-x="640" d="M454 427Q363 427 316 374T269 227V0H135V533H264V408H266Q295 482 345 512T468 543Q494 543 521 538T566 524V408Q544 416 517 421T454 427Z" />
<glyph unicode="s" glyph-name="s" horiz-adv-x="640" d="M420 387Q412 450 322 450Q276 450 251 434T226 391Q226 363 243 350T304 330L395 315Q484 301 520 264T557 166Q557 77 494 32T320 -14Q205 -14 147 28T81 155H207Q213 120 237 101T320 81Q430 81 430
145Q430 172 412 184T348 205L254 220Q220 225 192 236T144 266T112 312T100 377Q100 413 115 444T158 497T228 533T323 546Q379 546 420 534T488 500T529 449T547 387H420Z" />
<glyph unicode="t" glyph-name="t" horiz-adv-x="640" d="M228 427H53V529H172Q210 529 224 543T238 597V698H360V533H557V427H361V182Q361 134 382 116T451 97Q483 97 505 101T558 114V10Q535 3 502 -4T417 -11Q326 -11 277 31T228 159V427Z" />
<glyph unicode="u" glyph-name="u" horiz-adv-x="640" d="M217 216Q217 187 220 163T234 121Q245 104 262 97T303 89Q362 89 390 128T419 243V533H554V0H424V88H422Q402 47 362 18T258 -11Q170 -11 127 33T83 172V533H217V216Z" />
<glyph unicode="v" glyph-name="v" horiz-adv-x="640" d="M49 533H186L288 243Q296 220 301 200T312 163Q317 145 321 128H327Q331 145 336 163Q341 179 346 199T360 243L461 533H590L389 0H249L49 533Z" />
<glyph unicode="w" glyph-name="w" horiz-adv-x="640" d="M32 533H146L183 197Q185 182 186 166T188 135Q189 118 190 103H197Q197 118 199 135Q200 149 202 166T206 198L254 533H388L436 196Q438 181 439 165T443 135Q444 119 445 103H452Q453 118 454 135Q455
149 456 165T459 197L496 533H607L528 0H378L335 309Q332 327 330 345T326 379Q324 397 323 413H316Q315 397 313 379Q311 364 309 346T305 309L262 0H112L32 533Z" />
<glyph unicode="x" glyph-name="x" horiz-adv-x="640" d="M241 277L62 533H210L321 365H324L431 533H574L395 279L591 0H442L315 188H313L190 0H48L241 277Z" />
<glyph unicode="y" glyph-name="y" horiz-adv-x="640" d="M54 533H193L301 232Q309 211 313 194T322 162Q326 146 329 133H332Q335 146 339 162Q343 176 348 193T361 232L465 533H597L387 -23Q369 -70 350 -103T306 -158T246 -189T164 -199Q129 -199 108 -196T79
-191V-85Q90 -87 107 -89T143 -91Q166 -91 183 -88T212 -77T234 -56T252 -20L259 -2L54 533Z" />
<glyph unicode="z" glyph-name="z" horiz-adv-x="640" d="M95 533H542V433L240 104H550V0H85V99L386 429H95V533Z" />
<glyph unicode="{" glyph-name="braceleft" horiz-adv-x="640" d="M132 272V384H195Q230 384 243 399T256 448V603Q256 654 269 689T309 747T380 778T484 788H510V694Q467 694 441 689T401 670T381 635T376 581V449Q376 401 357 371T283 331V327Q337 317 356 286T376
205V76Q376 44 380 23T399 -12T440 -30T510 -36V-130H484Q424 -130 381 -120T310 -89T269 -33T256 52V207Q256 241 243 256T195 272H132Z" />
<glyph unicode="|" glyph-name="bar" horiz-adv-x="640" d="M271 788H369V-130H271V788Z" />
<glyph unicode="}" glyph-name="braceright" horiz-adv-x="640" d="M508 386V274H445Q410 274 397 259T384 210V55Q384 4 371 -31T331 -89T260 -120T156 -130H130V-36Q173 -36 199 -31T239 -12T259 23T264 77V209Q264 257 283 287T357 327V331Q303 341 284 372T264
453V582Q264 614 260 635T241 670T200 688T130 694V788H156Q216 788 259 778T330 747T371 690T384 606V451Q384 417 397 402T445 386H508Z" />
<glyph unicode="~" glyph-name="asciitilde" horiz-adv-x="640" d="M102 269Q102 302 110 331T133 381T171 414T223 426Q250 426 276 418T326 400T371 382T407 374Q425 374 437 386T452 428H536Q536 395 529 367T507 317T470 284T418 272Q392 272 366 280T316
297T272 315T236 323Q215 323 203 311T189 269H102V269Z" />
<glyph unicode="&#xa0;" glyph-name="uni00A0" horiz-adv-x="640" />
<glyph unicode="&#xa1;" glyph-name="exclamdown" horiz-adv-x="640" d="M401 -183H247L270 351H379L401 -183ZM406 605V441H242V605H406Z" />
<glyph unicode="&#xa2;" glyph-name="cent" horiz-adv-x="640" d="M572 189Q569 142 553 106T508 45T442 6T360 -12V-116H295V-11Q189 0 131 69T73 266Q73 387 132 459T295 544V635H360V545Q404 542 441 529T506 492T550 433T569 352H436Q433 389 416 416T360
452V84Q383 88 398 99T422 124T436 156T441 189H572ZM295 450Q246 435 226 385T205 268Q205 236 209 207T223 153T251 110T295 85V450Z" />
<glyph unicode="&#xa3;" glyph-name="sterling" horiz-adv-x="640" d="M579 0H62V84L92 108Q118 128 136 147T164 189T173 240T162 307H61V395H134L123 428Q99 501 106 561T145 663T228 729T344 752Q457 752 518 692T579 529H450Q450 552 445 574T429 612T398
639T348 649Q319 649 296 638T259 603T244 541T257 448L272 395H474V307H293Q302 250 289 205T229 121L219 112V110H579V0Z" />
<glyph unicode="&#xa4;" glyph-name="currency" horiz-adv-x="640" d="M217 341Q217 293 245 262T318 231Q364 231 392 262T420 341Q420 388 392 419T318 451Q273 451 245 420T217 341ZM417 185Q403 177 389 172T360 163V51H279V162Q262 165 248 171T219 185L140
106L85 161L164 239Q147 267 141 299H38V380H141Q147 413 162 440L86 516L143 573L219 496Q248 513 279 520V629H360V520Q377 516 391 510T420 495L500 576L555 521L474 439Q490 413 496 380H602V299H496Q490 269 474 241L552 164L495 107L417 185Z" />
<glyph unicode="&#xa5;" glyph-name="yen" horiz-adv-x="640" d="M255 152H66V226H255V311H64V385H243L33 741H181L324 482H326L471 741H608L395 385H574V311H386V226H576V152H386V0H255V152Z" />
<glyph unicode="&#xa6;" glyph-name="brokenbar" horiz-adv-x="640" d="M369 385H271V788H369V385ZM271 -130V294H369V-130H271Z" />
<glyph unicode="&#xa7;" glyph-name="section" horiz-adv-x="640" d="M181 365Q181 333 199 315T252 282L362 233Q376 226 387 221T403 213Q462 227 462 284Q462 310 446 329T388 367L281 413Q269 418 259 423T243 432Q212 427 197 408T181 365ZM60 344Q60 398
88 431T162 483V484Q139 504 129 531T119 596Q119 633 134 664T176 717T242 752T327 764Q379 764 417 752T481 717T521 663T537 594H415Q412 628 392 650T326 672Q284 672 264 653T243 606Q243 573 261 558T314 527L447 469Q487 452 513 434T555 396T577 353T584
302Q584 249 557 216T484 165V162Q506 142 516 118T527 60Q527 -25 470 -70T312 -115Q201 -115 147 -67T89 63H211Q216 22 239 0T313 -22Q360 -22 381 -5T402 43Q402 71 387 86T336 117L199 176Q166 190 141 205T97 239T70 284T60 344Z" />
<glyph unicode="&#xa8;" glyph-name="dieresis" horiz-adv-x="640" d="M125 761H280V611H125V761ZM354 611V761H508V611H354Z" />
<glyph unicode="&#xa9;" glyph-name="copyright" horiz-adv-x="640" d="M45 419Q45 494 60 559T107 673T192 749T320 777Q395 777 447 749T532 673T580 560T595 419V343Q595 266 580 200T532 86T447 11T320 -16Q245 -16 193 11T108 85T60 199T45 343V419ZM118
346Q118 291 125 237T155 140T216 71T320 44Q384 44 424 70T485 140T514 237T522 346V416Q522 468 515 521T486 618T424 689T320 717Q256 717 217 690T155 619T126 522T118 416V346ZM456 326Q453 243 419 204T326 165Q248 165 216 216T184 382Q184 495 219 547T327
599Q385 599 419 563T455 445H370Q369 477 361 498T325 519Q293 519 282 486T271 383Q271 314 280 281T325 247Q340 247 349 254T363 272T369 298T372 326H456Z" />
<glyph unicode="&#xaa;" glyph-name="ordfeminine" horiz-adv-x="640" d="M289 391Q307 391 324 397T355 417T377 449T386 493V507Q335 505 302 503T251 487Q232 473 232 445Q232 419 247 405T289 391ZM388 371Q368 344 334 327T254 309Q185 309 149 343T112 437Q112
510 178 544Q212 562 261 567T386 575V593Q386 632 368 651T315 671Q282 671 263 656T242 615H129Q134 678 183 715T313 752Q414 752 456 711T498 583V432Q498 415 503 409T524 403H539V315H495Q452 315 427 325T392 371H388Z" />
<glyph unicode="&#xab;" glyph-name="guillemotleft" horiz-adv-x="640" d="M540 464L433 258L542 57H428L311 260L427 464H540ZM320 464L213 258L323 57H208L92 260L207 464H320Z" />
<glyph unicode="&#xac;" glyph-name="logicalnot" horiz-adv-x="640" d="M455 112V306H75V409H565V112H455Z" />
<glyph unicode="&#xae;" glyph-name="registered" horiz-adv-x="640" d="M74 527Q74 579 92 624T143 704T221 757T319 776Q372 776 417 757T496 704T547 625T566 527Q566 475 548 430T496 352T418 299T319 280Q266 280 221 299T144 351T93 430T74 527ZM319 327Q361
327 396 342T456 384T496 447T511 527Q511 570 497 607T457 671T396 713T319 729Q278 729 243 714T183 671T144 607T130 527Q130 484 144 448T183 384T243 342T319 327ZM324 549Q342 549 352 557T363 585Q363 616 325 616H287V549H324ZM287 405H225V661H336Q353
661 369 657T398 643T419 620T427 584Q427 552 410 536T375 514L431 405H362L313 503H287V405Z" />
<glyph unicode="&#xaf;" glyph-name="macron" horiz-adv-x="640" d="M153 731H486V631H153V731Z" />
<glyph unicode="&#xb0;" glyph-name="degree" horiz-adv-x="640" d="M113 551Q113 595 128 633T171 698T236 742T319 758Q364 758 402 742T467 699T510 633T526 551Q526 507 511 469T468 403T402 360T319 344Q274 344 237 359T172 403T129 469T113 551ZM319 434Q369
434 399 467T429 551Q429 602 399 635T319 669Q270 669 240 636T209 551Q209 500 239 467T319 434Z" />
<glyph unicode="&#xb1;" glyph-name="plusminus" horiz-adv-x="640" d="M374 184H265V362H75V464H265V640H374V464H565V362H374V184ZM75 102H565V0H75V102Z" />
<glyph unicode="&#xb2;" glyph-name="twosuperior" horiz-adv-x="640" d="M120 675Q120 763 172 816T320 869Q367 869 402 857T462 825T498 776T511 715Q511 686 505 663T486 618T452 574T401 527L344 477Q315 453 296 440Q285 432 277 427V423H516V332H116V404L321
584Q363 620 381 646T400 710Q400 745 378 764T321 783Q283 783 257 760T230 675H120Z" />
<glyph unicode="&#xb3;" glyph-name="threesuperior" horiz-adv-x="640" d="M268 559V644H315Q350 644 374 662T398 715Q398 748 378 765T323 783Q280 783 259 762T235 704H128Q129 735 140 764T174 817T235 855T324 870Q369 870 403 859T461 829T496 785T508
730Q508 683 484 654T413 609V607Q462 596 491 566T521 478Q521 447 508 419T470 369T407 334T320 321Q267 321 229 334T167 371T132 424T119 487H228Q233 448 258 428T321 408Q361 408 386 428T411 484Q411 520 388 539T323 559H268Z" />
<glyph unicode="&#xb4;" glyph-name="acute" horiz-adv-x="640" d="M289 788H455L338 609H233L289 788Z" />
<glyph unicode="&#xb6;" glyph-name="paragraph" horiz-adv-x="640" d="M541 765V0H449V765H541ZM277 384Q231 385 193 397T128 433T85 492T69 576Q69 625 85 661T131 720T199 754T284 765H368V0H277V384Z" />
<glyph unicode="&#xb7;" glyph-name="periodcentered" horiz-adv-x="640" d="M238 397H402V233H238V397Z" />
<glyph unicode="&#xb8;" glyph-name="cedilla" horiz-adv-x="640" d="M322 -214Q268 -214 243 -193T213 -138H297Q303 -157 328 -157Q361 -157 361 -125Q361 -93 329 -93Q311 -93 300 -106H222L294 40H356L317 -39H347Q392 -39 417 -59T442 -118Q442 -159 414
-186T322 -214Z" />
<glyph unicode="&#xb9;" glyph-name="onesuperior" horiz-adv-x="640" d="M153 332V419H288V690H161V768H194Q247 768 275 790Q289 801 295 818T302 863H400V419H528V332H153Z" />
<glyph unicode="&#xba;" glyph-name="ordmasculine" horiz-adv-x="640" d="M320 306Q220 306 163 364T106 529Q106 634 163 692T320 751Q368 751 407 736T475 693T518 623T534 529Q534 477 519 436T475 366T407 322T320 306ZM320 392Q346 392 363 402T391 431T406
475T411 529Q411 590 391 627T320 665Q295 665 278 655T250 626T234 583T229 529Q229 468 249 430T320 392Z" />
<glyph unicode="&#xbb;" glyph-name="guillemotright" horiz-adv-x="640" d="M100 57L208 263L99 464H213L329 261L214 57H100ZM320 57L427 263L318 464H432L548 261L433 57H320Z" />
<glyph unicode="&#xbc;" glyph-name="onequarter" horiz-adv-x="1920" d="M1218 780H1315L762 -40H665L1218 780ZM1539 163V400H1533Q1529 392 1525 382Q1518 366 1500 337L1386 163H1539ZM1642 76V-40H1536V76H1280V157L1498 489H1642V165H1724V76H1642ZM153
257V344H288V615H161V693H194Q247 693 275 715Q289 726 295 743T302 788H400V344H528V257H153Z" />
<glyph unicode="&#xbd;" glyph-name="onehalf" horiz-adv-x="1920" d="M153 257V344H288V615H161V693H194Q247 693 275 715Q289 726 295 743T302 788H400V344H528V257H153ZM1188 780H1285L732 -40H635L1188 780ZM1300 303Q1300 391 1352 444T1500 497Q1547 497
1582 485T1642 453T1678 404T1691 343Q1691 314 1685 291T1666 246T1632 202T1581 155L1524 105Q1495 81 1476 68Q1465 60 1457 55V51H1696V-40H1296V32L1501 212Q1543 248 1561 274T1580 338Q1580 373 1558 392T1501 411Q1463 411 1437 388T1410 303H1300Z" />
<glyph unicode="&#xbe;" glyph-name="threequarters" horiz-adv-x="1920" d="M268 484V569H315Q350 569 374 587T398 640Q398 673 378 690T323 708Q280 708 259 687T235 629H128Q129 660 140 689T174 742T235 780T324 795Q369 795 403 784T461 754T496 710T508
655Q508 608 484 579T413 534V532Q462 521 491 491T521 403Q521 372 508 344T470 294T407 259T320 246Q267 246 229 259T167 296T132 349T119 412H228Q233 373 258 353T321 333Q361 333 386 353T411 409Q411 445 388 464T323 484H268ZM1209 780H1306L753 -40H656L1209
780ZM1539 163V400H1533Q1529 392 1525 382Q1518 366 1500 337L1386 163H1539ZM1642 76V-40H1536V76H1280V157L1498 489H1642V165H1724V76H1642Z" />
<glyph unicode="&#xbf;" glyph-name="questiondown" horiz-adv-x="640" d="M202 21Q202 -25 231 -53T313 -82Q370 -82 407 -46T443 72H575Q577 14 560 -34T509 -117T426 -171T314 -191Q249 -191 203 -174T126 -129T82 -62T68 18Q68 54 76 82T97 131T127 170T162
202L228 257Q238 266 244 273T254 288T259 305T261 328V355H381V306Q381 282 379 266T371 236T351 210T316 179L266 137Q236 112 219 87T202 21ZM402 605V441H238V605H402Z" />
<glyph unicode="&#xc0;" glyph-name="Agrave" horiz-adv-x="640" d="M310 654Q310 652 308 637T302 599T293 547T281 489L238 295H394L350 489Q343 519 338 549T330 602Q326 629 323 654H310ZM419 190H214L168 0H34L223 765H416L606 0H465L419 190ZM633 827H524L416
960H584L633 827Z" />
<glyph unicode="&#xc1;" glyph-name="Aacute" horiz-adv-x="640" d="M310 654Q310 652 308 637T302 599T293 547T281 489L238 295H394L350 489Q343 519 338 549T330 602Q326 629 323 654H310ZM419 190H214L168 0H34L223 765H416L606 0H465L419 190ZM316 961H484L376
828H267L316 961Z" />
<glyph unicode="&#xc2;" glyph-name="Acircumflex" horiz-adv-x="640" d="M310 654Q310 652 308 637T302 599T293 547T281 489L238 295H394L350 489Q343 519 338 549T330 602Q326 629 323 654H310ZM419 190H214L168 0H34L223 765H416L606 0H465L419 190ZM490 827H382L317
883H316L252 827H151L251 960H389L490 827Z" />
<glyph unicode="&#xc3;" glyph-name="Atilde" horiz-adv-x="640" d="M310 654Q310 652 308 637T302 599T293 547T281 489L238 295H394L350 489Q343 519 338 549T330 602Q326 629 323 654H310ZM419 190H214L168 0H34L223 765H416L606 0H465L419 190ZM135 821Q136
884 164 926T252 968Q274 968 294 961T332 946T366 931T397 924Q416 924 425 937T436 972H521Q520 940 513 914T492 867T456 836T404 825Q382 825 362 831T325 846T291 861T260 868Q223 868 220 821H135V821Z" />
<glyph unicode="&#xc4;" glyph-name="Adieresis" horiz-adv-x="640" d="M310 654Q310 652 308 637T302 599T293 547T281 489L238 295H394L350 489Q343 519 338 549T330 602Q326 629 323 654H310ZM419 190H214L168 0H34L223 765H416L606 0H465L419 190ZM358 972H512V821H358V972ZM127
972H281V821H127V972Z" />
<glyph unicode="&#xc5;" glyph-name="Aring" horiz-adv-x="640" d="M310 654Q310 652 308 637T302 599T293 547T281 489L238 295H394L350 489Q343 519 338 549T330 602Q326 629 323 654H310ZM419 190H214L168 0H34L223 765H416L606 0H465L419 190ZM316 795Q288
795 265 804T224 830T198 870T188 921Q188 948 197 971T224 1012T264 1039T316 1049Q344 1049 367 1039T408 1012T435 972T445 921Q445 894 436 871T409 831T368 805T316 795ZM316 987Q290 987 274 968T257 921Q257 894 273 876T316 857Q343 857 359 875T376 921Q376
948 360 967T316 987Z" />
<glyph unicode="&#xc6;" glyph-name="AE" horiz-adv-x="640" d="M308 656H278L191 303H308V656ZM116 0H-13L187 765H625V656H436V437H602V330H436V109H633V0H308V199H165L116 0Z" />
<glyph unicode="&#xc7;" glyph-name="Ccedilla" horiz-adv-x="640" d="M321 -216Q267 -216 242 -195T212 -140H296Q302 -159 327 -159Q360 -159 360 -127Q360 -95 328 -95Q310 -95 299 -108H221L269 -11Q150 9 99 106T48 375Q48 471 64 546T114 672T203 749T334
776Q452 776 520 708T595 517H457Q450 584 423 625T333 666Q292 666 265 649T221 596T198 506T191 379Q191 307 197 254T220 165T265 112T336 94Q399 94 425 137T457 252H595Q592 192 574 143T522 58T442 3T334 -16H328L316 -41H346Q391 -41 416 -61T441 -120Q441
-161 413 -188T321 -216Z" />
<glyph unicode="&#xc8;" glyph-name="Egrave" horiz-adv-x="640" d="M655 827H546L438 960H606L655 827ZM95 765H563V654H234V438H533V328H234V111H571V0H95V765Z" />
<glyph unicode="&#xc9;" glyph-name="Eacute" horiz-adv-x="640" d="M329 960H497L389 827H280L329 960ZM95 765H563V654H234V438H533V328H234V111H571V0H95V765Z" />
<glyph unicode="&#xca;" glyph-name="Ecircumflex" horiz-adv-x="640" d="M506 827H398L333 883H332L268 827H167L267 960H405L506 827ZM95 765H563V654H234V438H533V328H234V111H571V0H95V765Z" />
<glyph unicode="&#xcb;" glyph-name="Edieresis" horiz-adv-x="640" d="M95 765H563V654H234V438H533V328H234V111H571V0H95V765ZM375 972H529V821H375V972ZM144 972H298V821H144V972Z" />
<glyph unicode="&#xcc;" glyph-name="Igrave" horiz-adv-x="640" d="M389 107H550V0H90V107H251V658H90V765H550V658H389V107ZM631 827H522L414 960H582L631 827Z" />
<glyph unicode="&#xcd;" glyph-name="Iacute" horiz-adv-x="640" d="M389 107H550V0H90V107H251V658H90V765H550V658H389V107ZM321 960H489L381 827H272L321 960Z" />
<glyph unicode="&#xce;" glyph-name="Icircumflex" horiz-adv-x="640" d="M389 107H550V0H90V107H251V658H90V765H550V658H389V107ZM490 827H382L317 883H316L252 827H151L251 960H389L490 827Z" />
<glyph unicode="&#xcf;" glyph-name="Idieresis" horiz-adv-x="640" d="M389 107H550V0H90V107H251V658H90V765H550V658H389V107ZM359 972H513V821H359V972ZM128 972H282V821H128V972Z" />
<glyph unicode="&#xd0;" glyph-name="Eth" horiz-adv-x="640" d="M71 0V335H3V435H71V765H244Q328 765 393 745T502 679T570 561T593 384Q593 188 506 94T247 0H71ZM246 111Q295 111 332 125T395 171T434 255T447 383Q447 459 434 511T396 595T334 642T251 656H209V435H347V335H209V111H246Z"
/>
<glyph unicode="&#xd1;" glyph-name="Ntilde" horiz-adv-x="640" d="M151 821Q152 884 180 926T268 968Q290 968 310 961T348 946T382 931T413 924Q432 924 441 937T452 972H537Q536 940 529 914T508 867T472 836T420 825Q398 825 378 831T341 846T307 861T276
868Q239 868 236 821H151V821ZM63 765H228L414 309Q422 287 428 268T440 233Q445 215 449 199H457V765H577V0H412L226 456Q216 479 210 498T199 533Q194 551 190 566H183V0H63V765Z" />
<glyph unicode="&#xd2;" glyph-name="Ograve" horiz-adv-x="640" d="M632 827H523L415 960H583L632 827ZM44 380Q44 585 113 680T320 776Q464 776 530 682T596 380Q596 175 529 80T320 -16Q174 -16 109 79T44 380ZM320 92Q356 92 380 107T420 156T442 245T449
380Q449 461 442 516T419 606T379 654T320 669Q284 669 260 654T220 605T199 516T192 380Q192 300 198 246T220 157T259 107T320 92Z" />
<glyph unicode="&#xd3;" glyph-name="Oacute" horiz-adv-x="640" d="M315 960H483L375 827H266L315 960ZM44 380Q44 585 113 680T320 776Q464 776 530 682T596 380Q596 175 529 80T320 -16Q174 -16 109 79T44 380ZM320 92Q356 92 380 107T420 156T442 245T449
380Q449 461 442 516T419 606T379 654T320 669Q284 669 260 654T220 605T199 516T192 380Q192 300 198 246T220 157T259 107T320 92Z" />
<glyph unicode="&#xd4;" glyph-name="Ocircumflex" horiz-adv-x="640" d="M493 827H385L320 883H319L255 827H154L254 960H392L493 827ZM44 380Q44 585 113 680T320 776Q464 776 530 682T596 380Q596 175 529 80T320 -16Q174 -16 109 79T44 380ZM320 92Q356 92
380 107T420 156T442 245T449 380Q449 461 442 516T419 606T379 654T320 669Q284 669 260 654T220 605T199 516T192 380Q192 300 198 246T220 157T259 107T320 92Z" />
<glyph unicode="&#xd5;" glyph-name="Otilde" horiz-adv-x="640" d="M143 821Q144 884 172 926T260 968Q282 968 302 961T340 946T374 931T405 924Q424 924 433 937T444 972H529Q528 940 521 914T500 867T464 836T412 825Q390 825 370 831T333 846T299 861T268
868Q231 868 228 821H143V821ZM44 380Q44 585 113 680T320 776Q464 776 530 682T596 380Q596 175 529 80T320 -16Q174 -16 109 79T44 380ZM320 92Q356 92 380 107T420 156T442 245T449 380Q449 461 442 516T419 606T379 654T320 669Q284 669 260 654T220 605T199
516T192 380Q192 300 198 246T220 157T259 107T320 92Z" />
<glyph unicode="&#xd6;" glyph-name="Odieresis" horiz-adv-x="640" d="M359 972H513V821H359V972ZM128 972H282V821H128V972ZM44 380Q44 585 113 680T320 776Q464 776 530 682T596 380Q596 175 529 80T320 -16Q174 -16 109 79T44 380ZM320 92Q356 92 380 107T420
156T442 245T449 380Q449 461 442 516T419 606T379 654T320 669Q284 669 260 654T220 605T199 516T192 380Q192 300 198 246T220 157T259 107T320 92Z" />
<glyph unicode="&#xd7;" glyph-name="multiply" horiz-adv-x="640" d="M77 180L246 347L78 514L153 590L320 421L487 590L562 515L393 348L562 181L486 105L319 274L152 105L77 180Z" />
<glyph unicode="&#xd8;" glyph-name="Oslash" horiz-adv-x="640" d="M320 671Q284 671 259 656T219 606T196 514T189 374Q189 339 190 309T194 253L421 608Q405 642 381 656T320 671ZM320 90Q357 90 382 105T422 155T444 246T451 385Q451 460 445 514L216 156Q231
121 256 106T320 90ZM596 380Q596 175 529 80T320 -16Q209 -16 144 43L101 -25H17L98 102Q44 198 44 380Q44 585 113 680T320 776Q429 776 492 720L539 793H623L539 662Q596 564 596 380Z" />
<glyph unicode="&#xd9;" glyph-name="Ugrave" horiz-adv-x="640" d="M636 827H527L419 960H587L636 827ZM61 765H199V256Q199 176 227 137T322 98Q389 98 417 137T445 256V765H578V243Q578 175 559 126T506 46T425 -1T319 -16Q261 -16 214 -2T132 44T80 125T61 243V765Z" />
<glyph unicode="&#xda;" glyph-name="Uacute" horiz-adv-x="640" d="M316 960H484L376 827H267L316 960ZM61 765H199V256Q199 176 227 137T322 98Q389 98 417 137T445 256V765H578V243Q578 175 559 126T506 46T425 -1T319 -16Q261 -16 214 -2T132 44T80 125T61 243V765Z" />
<glyph unicode="&#xdb;" glyph-name="Ucircumflex" horiz-adv-x="640" d="M493 827H385L320 883H319L255 827H154L254 960H392L493 827ZM61 765H199V256Q199 176 227 137T322 98Q389 98 417 137T445 256V765H578V243Q578 175 559 126T506 46T425 -1T319 -16Q261
-16 214 -2T132 44T80 125T61 243V765Z" />
<glyph unicode="&#xdc;" glyph-name="Udieresis" horiz-adv-x="640" d="M61 765H199V256Q199 176 227 137T322 98Q389 98 417 137T445 256V765H578V243Q578 175 559 126T506 46T425 -1T319 -16Q261 -16 214 -2T132 44T80 125T61 243V765ZM360 972H514V821H360V972ZM129
972H283V821H129V972Z" />
<glyph unicode="&#xdd;" glyph-name="Yacute" horiz-adv-x="640" d="M251 324L21 765H170L322 461H326L477 765H619L389 327V0H251V324ZM319 960H487L379 827H270L319 960Z" />
<glyph unicode="&#xde;" glyph-name="Thorn" horiz-adv-x="640" d="M318 273Q381 275 412 302T444 391Q444 455 411 480T315 505H216V273H312H318ZM216 165V0H78V765H216V613H320Q377 613 425 601T508 563T563 495T583 392Q583 329 563 286T505 216T418 177T308 165H216Z" />
<glyph unicode="&#xdf;" glyph-name="germandbls" horiz-adv-x="640" d="M87 556Q87 669 148 728T324 787Q376 787 418 773T489 733T534 671T550 589Q550 554 541 527T517 480T481 445T439 423V420Q506 406 548 359T590 226Q590 116 522 58T332 0H298V105H328Q383
105 420 137T457 233Q457 296 421 330T322 365H304V468H320Q371 468 396 497T422 580Q422 634 393 660T320 686Q300 686 282 680T251 659T229 622T221 565V0H87V556Z" />
<glyph unicode="&#xe0;" glyph-name="agrave" horiz-adv-x="640" d="M205 155Q205 120 226 103T282 85Q305 85 327 94T367 121T396 168T407 233V240Q336 236 295 232T234 213Q219 202 212 187T205 155ZM413 74Q391 38 351 14T251 -11Q213 -11 181 -2T124 26T85
76T71 150Q71 241 152 284Q173 295 197 302T252 314T321 321T407 326V351Q407 451 314 451Q266 451 245 429T222 375H93Q95 412 110 443T154 497T221 532T312 545Q364 545 405 535T474 500T518 438T533 346V134Q533 116 540 109T566 102H589V0H527Q478 0 452 15T417
74H413ZM529 609L413 788H579L635 609H529Z" />
<glyph unicode="&#xe1;" glyph-name="aacute" horiz-adv-x="640" d="M205 155Q205 120 226 103T282 85Q305 85 327 94T367 121T396 168T407 233V240Q336 236 295 232T234 213Q219 202 212 187T205 155ZM413 74Q391 38 351 14T251 -11Q213 -11 181 -2T124 26T85
76T71 150Q71 241 152 284Q173 295 197 302T252 314T321 321T407 326V351Q407 451 314 451Q266 451 245 429T222 375H93Q95 412 110 443T154 497T221 532T312 545Q364 545 405 535T474 500T518 438T533 346V134Q533 116 540 109T566 102H589V0H527Q478 0 452 15T417
74H413ZM313 788H479L362 609H257L313 788Z" />
<glyph unicode="&#xe2;" glyph-name="acircumflex" horiz-adv-x="640" d="M205 155Q205 120 226 103T282 85Q305 85 327 94T367 121T396 168T407 233V240Q336 236 295 232T234 213Q219 202 212 187T205 155ZM413 74Q391 38 351 14T251 -11Q213 -11 181 -2T124
26T85 76T71 150Q71 241 152 284Q173 295 197 302T252 314T321 321T407 326V351Q407 451 314 451Q266 451 245 429T222 375H93Q95 412 110 443T154 497T221 532T312 545Q364 545 405 535T474 500T518 438T533 346V134Q533 116 540 109T566 102H589V0H527Q478 0
452 15T417 74H413ZM498 609H392L324 692H323L257 609H159L266 788H391L498 609Z" />
<glyph unicode="&#xe3;" glyph-name="atilde" horiz-adv-x="640" d="M205 155Q205 120 226 103T282 85Q305 85 327 94T367 121T396 168T407 233V240Q336 236 295 232T234 213Q219 202 212 187T205 155ZM413 74Q391 38 351 14T251 -11Q213 -11 181 -2T124 26T85
76T71 150Q71 241 152 284Q173 295 197 302T252 314T321 321T407 326V351Q407 451 314 451Q266 451 245 429T222 375H93Q95 412 110 443T154 497T221 532T312 545Q364 545 405 535T474 500T518 438T533 346V134Q533 116 540 109T566 102H589V0H527Q478 0 452 15T417
74H413ZM134 613Q134 646 141 675T162 725T198 758T250 770Q271 770 291 762T331 745T366 728T397 720Q414 720 424 732T436 774H524Q524 740 517 711T496 661T461 628T408 616Q387 616 367 624T327 641T292 658T261 666Q244 666 234 653T222 613H134V613Z" />
<glyph unicode="&#xe4;" glyph-name="adieresis" horiz-adv-x="640" d="M205 155Q205 120 226 103T282 85Q305 85 327 94T367 121T396 168T407 233V240Q336 236 295 232T234 213Q219 202 212 187T205 155ZM413 74Q391 38 351 14T251 -11Q213 -11 181 -2T124 26T85
76T71 150Q71 241 152 284Q173 295 197 302T252 314T321 321T407 326V351Q407 451 314 451Q266 451 245 429T222 375H93Q95 412 110 443T154 497T221 532T312 545Q364 545 405 535T474 500T518 438T533 346V134Q533 116 540 109T566 102H589V0H527Q478 0 452 15T417
74H413ZM130 761H285V611H130V761ZM359 611V761H513V611H359Z" />
<glyph unicode="&#xe5;" glyph-name="aring" horiz-adv-x="640" d="M205 155Q205 120 226 103T282 85Q305 85 327 94T367 121T396 168T407 233V240Q336 236 295 232T234 213Q219 202 212 187T205 155ZM413 74Q391 38 351 14T251 -11Q213 -11 181 -2T124 26T85
76T71 150Q71 241 152 284Q173 295 197 302T252 314T321 321T407 326V351Q407 451 314 451Q266 451 245 429T222 375H93Q95 412 110 443T154 497T221 532T312 545Q364 545 405 535T474 500T518 438T533 346V134Q533 116 540 109T566 102H589V0H527Q478 0 452 15T417
74H413ZM192 709Q192 736 201 759T228 799T268 826T320 836Q348 836 371 827T412 800T439 759T449 709Q449 682 440 659T413 619T372 593T320 583Q292 583 269 592T228 618T202 658T192 709ZM320 644Q347 644 363 662T380 709Q380 736 364 755T320 775Q294 775
278 756T261 709Q261 681 277 663T320 644Z" />
<glyph unicode="&#xe6;" glyph-name="ae" horiz-adv-x="640" d="M496 326Q495 389 482 422T433 456Q398 456 385 421T369 318H496V326ZM191 87Q225 87 241 116T257 199V238Q211 239 191 233T159 216Q150 207 144 193T138 158Q138 120 152 104T191 87ZM604 150Q596
72 554 31T437 -11Q383 -11 352 13T306 75H302Q281 34 250 12T168 -10Q101 -10 64 31T27 148Q27 233 87 279Q116 302 154 310T257 318V359Q257 403 247 428T204 453Q173 453 162 432T149 379H39Q42 454 84 500T202 546Q250 546 278 528T320 483H323Q340 511 368
528T443 546Q489 546 521 528T572 476T599 395T608 290V238H369Q370 151 384 117T436 83Q464 83 476 102T492 150H604Z" />
<glyph unicode="&#xe7;" glyph-name="ccedilla" horiz-adv-x="640" d="M328 -214Q274 -214 249 -193T219 -138H303Q309 -157 334 -157Q367 -157 367 -125Q367 -93 335 -93Q317 -93 306 -106H228L275 -10Q172 5 121 76T70 266Q70 400 139 473T332 546Q381 546 423
534T498 498T551 438T574 352H437Q432 393 407 421T331 450Q297 450 274 436T237 398T216 340T209 269Q209 232 214 199T233 140T270 99T330 84Q359 84 379 93T413 118T433 152T442 189H576Q573 139 553 102T501 38T426 -1T335 -14L323 -39H353Q398 -39 423 -59T448
-118Q448 -159 420 -186T328 -214Z" />
<glyph unicode="&#xe8;" glyph-name="egrave" horiz-adv-x="640" d="M437 327Q436 353 429 376T408 416T373 443T324 453Q267 453 238 419T201 321H437V327ZM570 150Q554 75 493 31T327 -14Q261 -14 211 6T128 63T79 151T62 266Q62 326 79 377T130 466T213 525T326
546Q391 546 438 525T516 466T561 380T576 277V228H200Q206 156 237 120T330 83Q356 83 374 88T404 103T424 125T436 150H570ZM536 609L420 788H586L642 609H536Z" />
<glyph unicode="&#xe9;" glyph-name="eacute" horiz-adv-x="640" d="M327 788H493L376 609H271L327 788ZM437 327Q436 353 429 376T408 416T373 443T324 453Q267 453 238 419T201 321H437V327ZM570 150Q554 75 493 31T327 -14Q261 -14 211 6T128 63T79 151T62
266Q62 326 79 377T130 466T213 525T326 546Q391 546 438 525T516 466T561 380T576 277V228H200Q206 156 237 120T330 83Q356 83 374 88T404 103T424 125T436 150H570Z" />
<glyph unicode="&#xea;" glyph-name="ecircumflex" horiz-adv-x="640" d="M503 609H397L329 692H328L262 609H164L271 788H396L503 609ZM437 327Q436 353 429 376T408 416T373 443T324 453Q267 453 238 419T201 321H437V327ZM570 150Q554 75 493 31T327 -14Q261
-14 211 6T128 63T79 151T62 266Q62 326 79 377T130 466T213 525T326 546Q391 546 438 525T516 466T561 380T576 277V228H200Q206 156 237 120T330 83Q356 83 374 88T404 103T424 125T436 150H570Z" />
<glyph unicode="&#xeb;" glyph-name="edieresis" horiz-adv-x="640" d="M137 761H292V611H137V761ZM366 611V761H520V611H366ZM437 327Q436 353 429 376T408 416T373 443T324 453Q267 453 238 419T201 321H437V327ZM570 150Q554 75 493 31T327 -14Q261 -14 211
6T128 63T79 151T62 266Q62 326 79 377T130 466T213 525T326 546Q391 546 438 525T516 466T561 380T576 277V228H200Q206 156 237 120T330 83Q356 83 374 88T404 103T424 125T436 150H570Z" />
<glyph unicode="&#xec;" glyph-name="igrave" horiz-adv-x="640" d="M78 0V105H263V429H100V533H396V105H586V0H78ZM527 609L411 788H577L633 609H527Z" />
<glyph unicode="&#xed;" glyph-name="iacute" horiz-adv-x="640" d="M331 788H497L380 609H275L331 788ZM78 0V105H263V429H100V533H396V105H586V0H78Z" />
<glyph unicode="&#xee;" glyph-name="icircumflex" horiz-adv-x="640" d="M495 609H389L321 692H320L254 609H156L263 788H388L495 609ZM78 0V105H263V429H100V533H396V105H586V0H78Z" />
<glyph unicode="&#xef;" glyph-name="idieresis" horiz-adv-x="640" d="M127 761H282V611H127V761ZM356 611V761H510V611H356ZM78 0V105H263V429H100V533H396V105H586V0H78Z" />
<glyph unicode="&#xf0;" glyph-name="eth" horiz-adv-x="640" d="M318 -14Q256 -14 208 6T126 63T75 152T57 267Q57 327 75 377T124 464T197 521T288 541Q326 541 353 530T399 502L404 505Q388 538 362 568T303 626L136 569L114 636L236 678Q210 697 184 714T131
748L234 794Q268 778 299 760T360 721L485 764L508 697L423 668Q498 594 540 499T583 287Q583 213 564 157T511 63T427 6T318 -14ZM322 452Q289 452 266 439T227 401T204 342T196 266Q196 224 202 190T224 132T262 94T319 80Q352 80 376 93T415 132T438 191T445
267Q445 358 416 405T322 452Z" />
<glyph unicode="&#xf1;" glyph-name="ntilde" horiz-adv-x="640" d="M423 317Q423 346 421 370T407 412Q384 444 337 444Q277 444 250 409T222 312V0H87V533H215V444H217Q227 464 242 482T278 515T325 537T385 545Q474 545 516 499T558 355V0H423V317ZM137 613Q137
646 144 675T165 725T201 758T253 770Q274 770 294 762T334 745T369 728T400 720Q417 720 427 732T439 774H527Q527 740 520 711T499 661T464 628T411 616Q390 616 370 624T330 641T295 658T264 666Q247 666 237 653T225 613H137V613Z" />
<glyph unicode="&#xf2;" glyph-name="ograve" horiz-adv-x="640" d="M319 -15Q257 -15 208 4T126 60T75 149T57 266Q57 399 126 472T320 546Q443 546 513 473T583 266Q583 200 565 148T512 60T429 5T319 -15ZM320 450Q287 450 264 437T227 399T205 340T198 266Q198
224 205 190T226 132T264 95T320 81Q353 81 376 94T414 133T435 191T442 266Q442 307 435 341T413 399T375 436T320 450ZM524 609L408 788H574L630 609H524Z" />
<glyph unicode="&#xf3;" glyph-name="oacute" horiz-adv-x="640" d="M320 788H486L369 609H264L320 788ZM319 -15Q257 -15 208 4T126 60T75 149T57 266Q57 399 126 472T320 546Q443 546 513 473T583 266Q583 200 565 148T512 60T429 5T319 -15ZM320 450Q287 450
264 437T227 399T205 340T198 266Q198 224 205 190T226 132T264 95T320 81Q353 81 376 94T414 133T435 191T442 266Q442 307 435 341T413 399T375 436T320 450Z" />
<glyph unicode="&#xf4;" glyph-name="ocircumflex" horiz-adv-x="640" d="M493 609H387L319 692H318L252 609H154L261 788H386L493 609ZM319 -15Q257 -15 208 4T126 60T75 149T57 266Q57 399 126 472T320 546Q443 546 513 473T583 266Q583 200 565 148T512 60T429
5T319 -15ZM320 450Q287 450 264 437T227 399T205 340T198 266Q198 224 205 190T226 132T264 95T320 81Q353 81 376 94T414 133T435 191T442 266Q442 307 435 341T413 399T375 436T320 450Z" />
<glyph unicode="&#xf5;" glyph-name="otilde" horiz-adv-x="640" d="M319 -15Q257 -15 208 4T126 60T75 149T57 266Q57 399 126 472T320 546Q443 546 513 473T583 266Q583 200 565 148T512 60T429 5T319 -15ZM320 450Q287 450 264 437T227 399T205 340T198 266Q198
224 205 190T226 132T264 95T320 81Q353 81 376 94T414 133T435 191T442 266Q442 307 435 341T413 399T375 436T320 450ZM135 613Q135 646 142 675T163 725T199 758T251 770Q272 770 292 762T332 745T367 728T398 720Q415 720 425 732T437 774H525Q525 740 518
711T497 661T462 628T409 616Q388 616 368 624T328 641T293 658T262 666Q245 666 235 653T223 613H135V613Z" />
<glyph unicode="&#xf6;" glyph-name="odieresis" horiz-adv-x="640" d="M127 761H282V611H127V761ZM356 611V761H510V611H356ZM319 -15Q257 -15 208 4T126 60T75 149T57 266Q57 399 126 472T320 546Q443 546 513 473T583 266Q583 200 565 148T512 60T429 5T319
-15ZM320 450Q287 450 264 437T227 399T205 340T198 266Q198 224 205 190T226 132T264 95T320 81Q353 81 376 94T414 133T435 191T442 266Q442 307 435 341T413 399T375 436T320 450Z" />
<glyph unicode="&#xf7;" glyph-name="divide" horiz-adv-x="640" d="M238 640H402V478H238V640ZM75 409H565V307H75V409ZM238 75V237H402V75H238Z" />
<glyph unicode="&#xf8;" glyph-name="oslash" horiz-adv-x="640" d="M320 454Q286 454 262 440T223 402T200 343T193 267Q193 214 202 175L404 425Q375 454 320 454ZM320 79Q354 79 378 93T417 131T439 190T446 267Q446 293 445 315T438 357L236 108Q265 79 320
79ZM582 267Q582 202 563 151T510 62T427 6T319 -14Q231 -14 169 26L120 -34H32L117 71Q57 145 57 267Q57 331 75 382T127 470T210 526T320 546Q408 546 470 506L517 564H606L522 460Q582 388 582 267Z" />
<glyph unicode="&#xf9;" glyph-name="ugrave" horiz-adv-x="640" d="M217 216Q217 187 220 163T234 121Q245 104 262 97T303 89Q362 89 390 128T419 243V533H554V0H424V88H422Q402 47 362 18T258 -11Q170 -11 127 33T83 172V533H217V216ZM527 609L411 788H577L633
609H527Z" />
<glyph unicode="&#xfa;" glyph-name="uacute" horiz-adv-x="640" d="M319 788H485L368 609H263L319 788ZM217 216Q217 187 220 163T234 121Q245 104 262 97T303 89Q362 89 390 128T419 243V533H554V0H424V88H422Q402 47 362 18T258 -11Q170 -11 127 33T83 172V533H217V216Z"
/>
<glyph unicode="&#xfb;" glyph-name="ucircumflex" horiz-adv-x="640" d="M496 609H390L322 692H321L255 609H157L264 788H389L496 609ZM217 216Q217 187 220 163T234 121Q245 104 262 97T303 89Q362 89 390 128T419 243V533H554V0H424V88H422Q402 47 362 18T258
-11Q170 -11 127 33T83 172V533H217V216Z" />
<glyph unicode="&#xfc;" glyph-name="udieresis" horiz-adv-x="640" d="M129 761H284V611H129V761ZM358 611V761H512V611H358ZM217 216Q217 187 220 163T234 121Q245 104 262 97T303 89Q362 89 390 128T419 243V533H554V0H424V88H422Q402 47 362 18T258 -11Q170
-11 127 33T83 172V533H217V216Z" />
<glyph unicode="&#xfd;" glyph-name="yacute" horiz-adv-x="640" d="M54 533H193L301 232Q309 211 313 194T322 162Q326 146 329 133H332Q335 146 339 162Q343 176 348 193T361 232L465 533H597L387 -23Q369 -70 350 -103T306 -158T246 -189T164 -199Q129 -199
108 -196T79 -191V-85Q90 -87 107 -89T143 -91Q166 -91 183 -88T212 -77T234 -56T252 -20L259 -2L54 533ZM327 788H493L376 609H271L327 788Z" />
<glyph unicode="&#xfe;" glyph-name="thorn" horiz-adv-x="640" d="M209 239Q209 205 216 176T240 126T279 93T335 81Q396 81 426 128T456 269Q456 354 428 401T334 449Q277 449 243 407T209 297V239ZM76 788H210V454H212Q232 490 274 517T378 545Q423 545 462
530T531 482T577 397T594 270Q594 201 577 148T529 59T457 5T367 -13Q308 -13 271 8T214 59H210V-188H76V788Z" />
<glyph unicode="&#xff;" glyph-name="ydieresis" horiz-adv-x="640" d="M54 533H193L301 232Q309 211 313 194T322 162Q326 146 329 133H332Q335 146 339 162Q343 176 348 193T361 232L465 533H597L387 -23Q369 -70 350 -103T306 -158T246 -189T164 -199Q129 -199
108 -196T79 -191V-85Q90 -87 107 -89T143 -91Q166 -91 183 -88T212 -77T234 -56T252 -20L259 -2L54 533ZM139 761H294V611H139V761ZM368 611V761H522V611H368Z" />
<glyph unicode="&#x100;" glyph-name="Amacron" horiz-adv-x="640" d="M310 654Q310 652 308 637T302 599T293 547T281 489L238 295H394L350 489Q343 519 338 549T330 602Q326 629 323 654H310ZM419 190H214L168 0H34L223 765H416L606 0H465L419 190ZM154 939H487V840H154V939Z"
/>
<glyph unicode="&#x101;" glyph-name="amacron" horiz-adv-x="640" d="M205 155Q205 120 226 103T282 85Q305 85 327 94T367 121T396 168T407 233V240Q336 236 295 232T234 213Q219 202 212 187T205 155ZM413 74Q391 38 351 14T251 -11Q213 -11 181 -2T124 26T85
76T71 150Q71 241 152 284Q173 295 197 302T252 314T321 321T407 326V351Q407 451 314 451Q266 451 245 429T222 375H93Q95 412 110 443T154 497T221 532T312 545Q364 545 405 535T474 500T518 438T533 346V134Q533 116 540 109T566 102H589V0H527Q478 0 452 15T417
74H413ZM406 731H739V631H406V731Z" />
<glyph unicode="&#x102;" glyph-name="Abreve" horiz-adv-x="640" d="M310 654Q310 652 308 637T302 599T293 547T281 489L238 295H394L350 489Q343 519 338 549T330 602Q326 629 323 654H310ZM419 190H214L168 0H34L223 765H416L606 0H465L419 190ZM258 971Q262
940 279 926T323 911Q349 911 366 925T389 971H483Q479 891 433 856T320 820Q287 820 259 828T208 855T173 902T158 971H258Z" />
<glyph unicode="&#x103;" glyph-name="abreve" horiz-adv-x="640" d="M205 155Q205 120 226 103T282 85Q305 85 327 94T367 121T396 168T407 233V240Q336 236 295 232T234 213Q219 202 212 187T205 155ZM413 74Q391 38 351 14T251 -11Q213 -11 181 -2T124 26T85
76T71 150Q71 241 152 284Q173 295 197 302T252 314T321 321T407 326V351Q407 451 314 451Q266 451 245 429T222 375H93Q95 412 110 443T154 497T221 532T312 545Q364 545 405 535T474 500T518 438T533 346V134Q533 116 540 109T566 102H589V0H527Q478 0 452 15T417
74H413ZM263 788Q263 748 282 729T331 709Q361 709 380 728T400 788H491Q491 743 479 711T444 657T392 626T328 616Q294 616 265 626T213 657T179 710T166 788H263Z" />
<glyph unicode="&#x104;" glyph-name="Aogonek" horiz-adv-x="640" d="M310 654Q310 652 308 637T302 599T293 547T281 489L238 295H394L350 489Q343 519 338 549T330 602Q326 629 323 654H310ZM606 -188H581Q508 -188 476 -163T444 -97Q444 -37 520 0H465L419
190H214L168 0H34L223 765H416L606 0Q551 -34 551 -67Q551 -87 563 -96T606 -106V-188Z" />
<glyph unicode="&#x105;" glyph-name="aogonek" horiz-adv-x="640" d="M591 -188H566Q492 -188 461 -164T429 -97Q429 -69 446 -44T508 -3V2Q466 5 446 20T417 74H413Q391 38 351 14T251 -11Q213 -11 181 -2T124 26T85 76T71 150Q71 241 152 284Q173 295 197 302T252
314T321 321T407 326V351Q407 451 314 451Q266 451 245 429T222 375H93Q95 412 110 443T154 497T221 532T312 545Q364 545 405 535T474 500T518 438T533 346V134Q533 116 540 109T566 102H589V0Q562 -18 549 -34T535 -69Q535 -105 591 -106V-188ZM205 155Q205 120
226 103T282 85Q305 85 327 94T367 121T396 168T407 233V240Q336 236 295 232T234 213Q219 202 212 187T205 155Z" />
<glyph unicode="&#x106;" glyph-name="Cacute" horiz-adv-x="640" d="M457 517Q450 584 423 625T333 666Q292 666 265 649T221 596T198 506T191 379Q191 307 197 254T220 165T265 112T336 94Q399 94 425 137T457 252H595Q592 192 574 143T522 58T442 3T334 -16Q256
-16 202 9T114 83T64 205T48 375Q48 471 64 546T114 672T203 749T334 776Q452 776 520 708T595 517H457ZM325 960H493L385 827H276L325 960Z" />
<glyph unicode="&#x107;" glyph-name="cacute" horiz-adv-x="640" d="M333 788H499L382 609H277L333 788ZM437 352Q432 393 407 421T331 450Q297 450 274 436T237 398T216 340T209 269Q209 232 214 199T233 140T270 99T330 84Q359 84 379 93T413 118T433 152T442
189H576Q573 139 553 102T500 38T424 -1T330 -14Q199 -14 135 60T70 266Q70 400 139 473T332 546Q381 546 423 534T498 498T551 438T574 352H437Z" />
<glyph unicode="&#x108;" glyph-name="Ccircumflex" horiz-adv-x="640" d="M507 827H399L334 883H333L269 827H168L268 960H406L507 827ZM457 517Q450 584 423 625T333 666Q292 666 265 649T221 596T198 506T191 379Q191 307 197 254T220 165T265 112T336 94Q399
94 425 137T457 252H595Q592 192 574 143T522 58T442 3T334 -16Q256 -16 202 9T114 83T64 205T48 375Q48 471 64 546T114 672T203 749T334 776Q452 776 520 708T595 517H457Z" />
<glyph unicode="&#x109;" glyph-name="ccircumflex" horiz-adv-x="640" d="M507 609H401L333 692H332L266 609H168L275 788H400L507 609ZM437 352Q432 393 407 421T331 450Q297 450 274 436T237 398T216 340T209 269Q209 232 214 199T233 140T270 99T330 84Q359
84 379 93T413 118T433 152T442 189H576Q573 139 553 102T500 38T424 -1T330 -14Q199 -14 135 60T70 266Q70 400 139 473T332 546Q381 546 423 534T498 498T551 438T574 352H437Z" />
<glyph unicode="&#x10a;" glyph-name="Cdotaccent" horiz-adv-x="640" d="M457 517Q450 584 423 625T333 666Q292 666 265 649T221 596T198 506T191 379Q191 307 197 254T220 165T265 112T336 94Q399 94 425 137T457 252H595Q592 192 574 143T522 58T442 3T334
-16Q256 -16 202 9T114 83T64 205T48 375Q48 471 64 546T114 672T203 749T334 776Q452 776 520 708T595 517H457ZM258 972H413V822H258V972Z" />
<glyph unicode="&#x10b;" glyph-name="cdotaccent" horiz-adv-x="640" d="M437 352Q432 393 407 421T331 450Q297 450 274 436T237 398T216 340T209 269Q209 232 214 199T233 140T270 99T330 84Q359 84 379 93T413 118T433 152T442 189H576Q573 139 553 102T500
38T424 -1T330 -14Q199 -14 135 60T70 266Q70 400 139 473T332 546Q381 546 423 534T498 498T551 438T574 352H437ZM253 763H409V611H253V763Z" />
<glyph unicode="&#x10c;" glyph-name="Ccaron" horiz-adv-x="640" d="M169 960H277L342 904H344L407 960H508L408 827H271L169 960ZM457 517Q450 584 423 625T333 666Q292 666 265 649T221 596T198 506T191 379Q191 307 197 254T220 165T265 112T336 94Q399 94
425 137T457 252H595Q592 192 574 143T522 58T442 3T334 -16Q256 -16 202 9T114 83T64 205T48 375Q48 471 64 546T114 672T203 749T334 776Q452 776 520 708T595 517H457Z" />
<glyph unicode="&#x10d;" glyph-name="ccaron" horiz-adv-x="640" d="M165 788H271L339 705H340L405 788H504L398 609H272L165 788ZM437 352Q432 393 407 421T331 450Q297 450 274 436T237 398T216 340T209 269Q209 232 214 199T233 140T270 99T330 84Q359 84
379 93T413 118T433 152T442 189H576Q573 139 553 102T500 38T424 -1T330 -14Q199 -14 135 60T70 266Q70 400 139 473T332 546Q381 546 423 534T498 498T551 438T574 352H437Z" />
<glyph unicode="&#x10e;" glyph-name="Dcaron" horiz-adv-x="640" d="M388 960H496L561 904H563L626 960H727L627 827H490L388 960ZM63 765H248Q332 765 397 745T506 679T574 561T597 384Q597 188 509 94T251 0H63V765ZM250 111Q299 111 336 125T398 171T437 255T450
383Q450 459 437 511T399 595T338 642T254 656H202V111H250Z" />
<glyph unicode="&#x10f;" glyph-name="dcaron" horiz-adv-x="640" d="M374 288Q374 363 347 405T272 447Q166 447 166 264Q166 175 188 128T267 80Q319 80 346 122T374 227V288ZM508 0H380V70H377Q357 31 322 9T233 -14Q195 -14 159 -2T93 42T47 127T29 261Q29
333 45 386T89 474T157 526T243 543Q290 543 321 525T371 475H373V788H508V0ZM567 788H697L620 585H547L567 788Z" />
<glyph unicode="&#x110;" glyph-name="Dcroat" horiz-adv-x="640" d="M71 0V335H3V435H71V765H244Q328 765 393 745T502 679T570 561T593 384Q593 188 506 94T247 0H71ZM246 111Q295 111 332 125T395 171T434 255T447 383Q447 459 434 511T396 595T334 642T251
656H209V435H347V335H209V111H246Z" />
<glyph unicode="&#x111;" glyph-name="dcroat" horiz-adv-x="640" d="M430 289Q430 365 398 407T310 449Q248 449 216 403T183 265Q183 181 210 131T304 81Q365 81 397 123T430 228V289ZM432 73Q409 35 370 11T270 -14Q220 -14 179 2T108 53T62 138T45 261Q45
331 62 384T111 473T185 527T277 545Q334 545 370 524T426 471H428V611H268V690H428V788H563V690H634V611H563V0H435V73H432Z" />
<glyph unicode="&#x112;" glyph-name="Emacron" horiz-adv-x="640" d="M95 765H563V654H234V438H533V328H234V111H571V0H95V765ZM175 939H508V840H175V939Z" />
<glyph unicode="&#x113;" glyph-name="emacron" horiz-adv-x="640" d="M437 327Q436 353 429 376T408 416T373 443T324 453Q267 453 238 419T201 321H437V327ZM570 150Q554 75 493 31T327 -14Q261 -14 211 6T128 63T79 151T62 266Q62 326 79 377T130 466T213 525T326
546Q391 546 438 525T516 466T561 380T576 277V228H200Q206 156 237 120T330 83Q356 83 374 88T404 103T424 125T436 150H570ZM159 731H492V631H159V731Z" />
<glyph unicode="&#x114;" glyph-name="Ebreve" horiz-adv-x="640" d="M95 765H563V654H234V438H533V328H234V111H571V0H95V765ZM274 971Q278 940 295 926T339 911Q365 911 382 925T405 971H499Q495 891 449 856T336 820Q303 820 275 828T224 855T189 902T174 971H274Z" />
<glyph unicode="&#x115;" glyph-name="ebreve" horiz-adv-x="640" d="M437 327Q436 353 429 376T408 416T373 443T324 453Q267 453 238 419T201 321H437V327ZM570 150Q554 75 493 31T327 -14Q261 -14 211 6T128 63T79 151T62 266Q62 326 79 377T130 466T213 525T326
546Q391 546 438 525T516 466T561 380T576 277V228H200Q206 156 237 120T330 83Q356 83 374 88T404 103T424 125T436 150H570ZM264 788Q264 748 283 729T332 709Q362 709 381 728T401 788H492Q492 743 480 711T445 657T393 626T329 616Q295 616 266 626T214 657T180
710T167 788H264Z" />
<glyph unicode="&#x116;" glyph-name="Edotaccent" horiz-adv-x="640" d="M263 972H418V822H263V972ZM95 765H563V654H234V438H533V328H234V111H571V0H95V765Z" />
<glyph unicode="&#x117;" glyph-name="edotaccent" horiz-adv-x="640" d="M437 327Q436 353 429 376T408 416T373 443T324 453Q267 453 238 419T201 321H437V327ZM570 150Q554 75 493 31T327 -14Q261 -14 211 6T128 63T79 151T62 266Q62 326 79 377T130 466T213
525T326 546Q391 546 438 525T516 466T561 380T576 277V228H200Q206 156 237 120T330 83Q356 83 374 88T404 103T424 125T436 150H570ZM252 763H408V611H252V763Z" />
<glyph unicode="&#x118;" glyph-name="Eogonek" horiz-adv-x="640" d="M546 -188H521Q448 -188 416 -163T384 -97Q384 -37 460 0H95V765H563V654H234V438H533V328H234V111H571V0H546Q491 -34 491 -67Q491 -87 503 -96T546 -106V-188Z" />
<glyph unicode="&#x119;" glyph-name="eogonek" horiz-adv-x="640" d="M437 327Q436 353 429 376T408 416T373 443T324 453Q267 453 238 419T201 321H437V327ZM478 -188H453Q380 -188 348 -163T316 -98Q316 -68 333 -48T383 -14V-9Q369 -11 357 -12T327 -14Q261
-14 211 6T128 63T79 151T62 266Q62 326 79 377T130 466T213 525T326 546Q391 546 438 525T516 466T561 380T576 277V228H200Q206 156 237 120T330 83Q356 83 374 88T404 103T424 125T436 150H570Q562 113 544 84T492 30Q451 0 437 -21T423 -61Q423 -83 436 -94T478
-106V-188Z" />
<glyph unicode="&#x11a;" glyph-name="Ecaron" horiz-adv-x="640" d="M173 960H281L346 904H348L411 960H512L412 827H275L173 960ZM95 765H563V654H234V438H533V328H234V111H571V0H95V765Z" />
<glyph unicode="&#x11b;" glyph-name="ecaron" horiz-adv-x="640" d="M161 788H267L335 705H336L401 788H500L394 609H268L161 788ZM437 327Q436 353 429 376T408 416T373 443T324 453Q267 453 238 419T201 321H437V327ZM570 150Q554 75 493 31T327 -14Q261 -14
211 6T128 63T79 151T62 266Q62 326 79 377T130 466T213 525T326 546Q391 546 438 525T516 466T561 380T576 277V228H200Q206 156 237 120T330 83Q356 83 374 88T404 103T424 125T436 150H570Z" />
<glyph unicode="&#x11c;" glyph-name="Gcircumflex" horiz-adv-x="640" d="M504 827H396L331 883H330L266 827H165L265 960H403L504 827ZM332 669Q290 669 262 651T218 596T194 505T187 379Q187 306 194 252T217 163T261 110T330 92Q365 92 390 104T431 139T455
192T463 259V294H319V400H590V0H481V80H474Q453 38 413 11T309 -16Q173 -16 110 81T46 363Q46 565 116 670T335 776Q395 776 441 758T518 708T567 634T586 543H452Q450 569 442 592T420 632T383 659T332 669Z" />
<glyph unicode="&#x11d;" glyph-name="gcircumflex" horiz-adv-x="640" d="M499 609H393L325 692H324L258 609H160L267 788H392L499 609ZM433 298Q433 369 401 409T311 450Q254 450 221 405T187 276Q187 195 216 149T312 103Q339 103 361 113T400 143T424 187T433
242V298ZM308 -200Q205 -200 141 -159T67 -39H200Q207 -71 233 -88T311 -105Q372 -105 403 -76T434 23V97H431Q411 62 372 37T275 11Q226 11 185 26T113 74T66 155T49 274Q49 340 66 391T114 476T187 527T279 545Q311 545 336 538T381 518T414 490T436 460H438V533H566V34Q566
-84 500 -142T308 -200Z" />
<glyph unicode="&#x11e;" glyph-name="Gbreve" horiz-adv-x="640" d="M270 971Q274 940 291 926T335 911Q361 911 378 925T401 971H495Q491 891 445 856T332 820Q299 820 271 828T220 855T185 902T170 971H270ZM332 669Q290 669 262 651T218 596T194 505T187 379Q187
306 194 252T217 163T261 110T330 92Q365 92 390 104T431 139T455 192T463 259V294H319V400H590V0H481V80H474Q453 38 413 11T309 -16Q173 -16 110 81T46 363Q46 565 116 670T335 776Q395 776 441 758T518 708T567 634T586 543H452Q450 569 442 592T420 632T383
659T332 669Z" />
<glyph unicode="&#x11f;" glyph-name="gbreve" horiz-adv-x="640" d="M433 298Q433 369 401 409T311 450Q254 450 221 405T187 276Q187 195 216 149T312 103Q339 103 361 113T400 143T424 187T433 242V298ZM308 -200Q205 -200 141 -159T67 -39H200Q207 -71 233
-88T311 -105Q372 -105 403 -76T434 23V97H431Q411 62 372 37T275 11Q226 11 185 26T113 74T66 155T49 274Q49 340 66 391T114 476T187 527T279 545Q311 545 336 538T381 518T414 490T436 460H438V533H566V34Q566 -84 500 -142T308 -200ZM258 788Q258 748 277 729T326
709Q356 709 375 728T395 788H486Q486 743 474 711T439 657T387 626T323 616Q289 616 260 626T208 657T174 710T161 788H258Z" />
<glyph unicode="&#x120;" glyph-name="Gdotaccent" horiz-adv-x="640" d="M254 972H409V822H254V972ZM332 669Q290 669 262 651T218 596T194 505T187 379Q187 306 194 252T217 163T261 110T330 92Q365 92 390 104T431 139T455 192T463 259V294H319V400H590V0H481V80H474Q453
38 413 11T309 -16Q173 -16 110 81T46 363Q46 565 116 670T335 776Q395 776 441 758T518 708T567 634T586 543H452Q450 569 442 592T420 632T383 659T332 669Z" />
<glyph unicode="&#x121;" glyph-name="gdotaccent" horiz-adv-x="640" d="M433 298Q433 369 401 409T311 450Q254 450 221 405T187 276Q187 195 216 149T312 103Q339 103 361 113T400 143T424 187T433 242V298ZM308 -200Q205 -200 141 -159T67 -39H200Q207 -71
233 -88T311 -105Q372 -105 403 -76T434 23V97H431Q411 62 372 37T275 11Q226 11 185 26T113 74T66 155T49 274Q49 340 66 391T114 476T187 527T279 545Q311 545 336 538T381 518T414 490T436 460H438V533H566V34Q566 -84 500 -142T308 -200ZM247 763H403V611H247V763Z"
/>
<glyph unicode="&#x122;" glyph-name="Gcommaaccent" horiz-adv-x="640" d="M497 -52H657L566 -205H471L497 -52ZM332 669Q290 669 262 651T218 596T194 505T187 379Q187 306 194 252T217 163T261 110T330 92Q365 92 390 104T431 139T455 192T463 259V294H319V400H590V0H481V80H474Q453
38 413 11T309 -16Q173 -16 110 81T46 363Q46 565 116 670T335 776Q395 776 441 758T518 708T567 634T586 543H452Q450 569 442 592T420 632T383 659T332 669Z" />
<glyph unicode="&#x123;" glyph-name="gcommaaccent" horiz-adv-x="640" d="M411 609H249L346 775H442L411 609ZM433 298Q433 369 401 409T311 450Q254 450 221 405T187 276Q187 195 216 149T312 103Q339 103 361 113T400 143T424 187T433 242V298ZM308 -200Q205
-200 141 -159T67 -39H200Q207 -71 233 -88T311 -105Q372 -105 403 -76T434 23V97H431Q411 62 372 37T275 11Q226 11 185 26T113 74T66 155T49 274Q49 340 66 391T114 476T187 527T279 545Q311 545 336 538T381 518T414 490T436 460H438V533H566V34Q566 -84 500
-142T308 -200Z" />
<glyph unicode="&#x124;" glyph-name="Hcircumflex" horiz-adv-x="640" d="M202 0H63V765H202V439H438V765H577V0H438V328H202V0ZM490 827H382L317 883H316L252 827H151L251 960H389L490 827Z" />
<glyph unicode="&#x125;" glyph-name="hcircumflex" horiz-adv-x="640" d="M423 0V318Q423 347 421 371T407 412Q384 444 337 444Q277 444 250 409T222 312V0H87V788H222V450H223Q231 468 245 485T279 515T325 537T385 545Q475 545 516 499T558 355V0H423ZM508
827H400L335 883H334L270 827H169L269 960H407L508 827Z" />
<glyph unicode="&#x126;" glyph-name="Hbar" horiz-adv-x="640" d="M438 439V560H202V439H438ZM202 0H63V560H7V646H63V765H202V646H438V765H577V646H633V560H577V0H438V328H202V0Z" />
<glyph unicode="&#x127;" glyph-name="hbar" horiz-adv-x="640" d="M222 0H87V611H12V690H87V788H222V690H380V611H222V450H223Q231 468 245 485T279 515T325 537T385 545Q475 545 516 499T558 355V0H423V318Q423 347 421 371T407 412Q384 444 337 444Q277 444
250 409T222 312V0Z" />
<glyph unicode="&#x128;" glyph-name="Itilde" horiz-adv-x="640" d="M389 107H550V0H90V107H251V658H90V765H550V658H389V107ZM143 821Q144 884 172 926T260 968Q282 968 302 961T340 946T374 931T405 924Q424 924 433 937T444 972H529Q528 940 521 914T500 867T464
836T412 825Q390 825 370 831T333 846T299 861T268 868Q231 868 228 821H143V821Z" />
<glyph unicode="&#x129;" glyph-name="itilde" horiz-adv-x="640" d="M78 0V105H263V429H100V533H396V105H586V0H78ZM388 613Q388 646 395 675T416 725T452 758T504 770Q525 770 545 762T585 745T620 728T651 720Q668 720 678 732T690 774H778Q778 740 771 711T750
661T715 628T662 616Q641 616 621 624T581 641T546 658T515 666Q498 666 488 653T476 613H388V613Z" />
<glyph unicode="&#x12a;" glyph-name="Imacron" horiz-adv-x="640" d="M389 107H550V0H90V107H251V658H90V765H550V658H389V107ZM154 939H487V840H154V939Z" />
<glyph unicode="&#x12b;" glyph-name="imacron" horiz-adv-x="640" d="M78 0V105H263V429H100V533H396V105H586V0H78ZM153 731H486V631H153V731Z" />
<glyph unicode="&#x12c;" glyph-name="Ibreve" horiz-adv-x="640" d="M389 107H550V0H90V107H251V658H90V765H550V658H389V107ZM258 971Q262 940 279 926T323 911Q349 911 366 925T389 971H483Q479 891 433 856T320 820Q287 820 259 828T208 855T173 902T158 971H258Z" />
<glyph unicode="&#x12d;" glyph-name="ibreve" horiz-adv-x="640" d="M78 0V105H263V429H100V533H396V105H586V0H78ZM256 788Q256 748 275 729T324 709Q354 709 373 728T393 788H484Q484 743 472 711T437 657T385 626T321 616Q287 616 258 626T206 657T172 710T159
788H256Z" />
<glyph unicode="&#x12e;" glyph-name="Iogonek" horiz-adv-x="640" d="M514 -188H489Q416 -188 384 -163T352 -97Q352 -37 428 0H90V107H251V658H90V765H550V658H389V107H550V0H514Q459 -34 459 -67Q459 -87 471 -96T514 -106V-188Z" />
<glyph unicode="&#x12f;" glyph-name="iogonek" horiz-adv-x="640" d="M245 770H409V610H245V770ZM543 -188H518Q445 -188 413 -163T381 -97Q381 -37 457 0H78V106H263V429H100V533H396V106H578V0H543Q488 -34 488 -67Q488 -87 500 -96T543 -106V-188Z" />
<glyph unicode="&#x130;" glyph-name="Idotaccent" horiz-adv-x="640" d="M389 107H550V0H90V107H251V658H90V765H550V658H389V107ZM242 972H397V822H242V972Z" />
<glyph unicode="&#x131;" glyph-name="dotlessi" horiz-adv-x="640" d="M78 0V105H263V429H100V533H396V105H586V0H78Z" />
<glyph unicode="&#x132;" glyph-name="IJ" horiz-adv-x="1280" d="M389 107H550V0H90V107H251V658H90V765H550V658H389V107ZM892 -10Q839 -10 801 -4T733 7V120Q762 115 801 111T890 106Q950 106 986 135T1022 226V657H779V765H1160V217Q1160 159 1139 116T1081
45T996 4T892 -10Z" />
<glyph unicode="&#x133;" glyph-name="ij" horiz-adv-x="1280" d="M245 770H409V610H245V770ZM78 0V106H263V429H100V533H396V106H578V0H78ZM952 611V763H1108V611H952ZM889 -198Q854 -198 824 -193T772 -182V-79Q792 -83 818 -86T879 -90Q919 -90 942 -71T966
-3V428H772V533H1099V-11Q1099 -61 1082 -96T1036 -154T969 -187T889 -198Z" />
<glyph unicode="&#x134;" glyph-name="Jcircumflex" horiz-adv-x="640" d="M507 827H399L334 883H333L269 827H168L268 960H406L507 827ZM252 -10Q199 -10 161 -4T93 7V120Q122 115 161 111T250 106Q310 106 346 135T382 226V657H139V765H520V217Q520 159 499
116T441 45T356 4T252 -10Z" />
<glyph unicode="&#x135;" glyph-name="jcircumflex" horiz-adv-x="640" d="M245 -198Q210 -198 180 -193T128 -182V-75Q148 -79 175 -83T236 -87Q276 -87 299 -68T322 0V428H128V533H456V-11Q456 -61 439 -96T392 -154T325 -187T245 -198ZM545 609H439L371 692H370L304
609H206L313 788H438L545 609Z" />
<glyph unicode="&#x136;" glyph-name="Kcommaaccent" horiz-adv-x="640" d="M503 -52H663L572 -205H477L503 -52ZM204 0H68V765H204V435L456 765H606L355 440L621 0H461L260 335L204 263V0Z" />
<glyph unicode="&#x137;" glyph-name="kcommaaccent" horiz-adv-x="640" d="M256 -52H416L325 -205H230L256 -52ZM227 0H96V788H227V289L440 533H589L395 317L607 0H455L306 233L227 144V0Z" />
<glyph unicode="&#x138;" glyph-name="kgreenlandic" horiz-adv-x="640" d="M228 0H96V533H228V292L437 533H586L398 325L607 0H455L308 235L228 145V0Z" />
<glyph unicode="&#x139;" glyph-name="Lacute" horiz-adv-x="640" d="M424 960H592L484 827H375L424 960ZM104 765H243V115H590V0H104V765Z" />
<glyph unicode="&#x13a;" glyph-name="lacute" horiz-adv-x="640" d="M332 979H500L392 846H283L332 979ZM73 0V105H258V684H92V788H391V105H580V0H73Z" />
<glyph unicode="&#x13b;" glyph-name="Lcommaaccent" horiz-adv-x="640" d="M274 -52H434L343 -205H248L274 -52ZM104 765H243V115H590V0H104V765Z" />
<glyph unicode="&#x13c;" glyph-name="lcommaaccent" horiz-adv-x="640" d="M503 -52H663L572 -205H477L503 -52ZM73 0V105H258V684H92V788H391V105H580V0H73Z" />
<glyph unicode="&#x13d;" glyph-name="Lcaron" horiz-adv-x="640" d="M368 788H498L421 585H348L368 788ZM104 765H243V115H590V0H104V765Z" />
<glyph unicode="&#x13e;" glyph-name="lcaron" horiz-adv-x="640" d="M494 788H624L547 585H474L494 788ZM73 0V105H258V684H92V788H391V105H580V0H73Z" />
<glyph unicode="&#x13f;" glyph-name="Ldot" horiz-adv-x="640" d="M409 472H572V309H409V472ZM355 765H494V115H841V0H355V765Z" />
<glyph unicode="&#x140;" glyph-name="ldot" horiz-adv-x="640" d="M73 0V105H258V684H92V788H391V105H580V0H73ZM570 457H718V310H570V457Z" />
<glyph unicode="&#x141;" glyph-name="Lslash" horiz-adv-x="640" d="M99 0V272L28 244V347L99 375V765H238V429L477 523V420L238 326V115H585V0H99Z" />
<glyph unicode="&#x142;" glyph-name="lslash" horiz-adv-x="640" d="M73 0V105H258V316L111 250V352L258 418V684H92V788H391V478L536 543V440L391 375V105H580V0H73Z" />
<glyph unicode="&#x143;" glyph-name="Nacute" horiz-adv-x="640" d="M327 960H495L387 827H278L327 960ZM63 765H228L414 309Q422 287 428 268T440 233Q445 215 449 199H457V765H577V0H412L226 456Q216 479 210 498T199 533Q194 551 190 566H183V0H63V765Z" />
<glyph unicode="&#x144;" glyph-name="nacute" horiz-adv-x="640" d="M335 788H501L384 609H279L335 788ZM423 317Q423 346 421 370T407 412Q384 444 337 444Q277 444 250 409T222 312V0H87V533H215V444H217Q227 464 242 482T278 515T325 537T385 545Q474 545
516 499T558 355V0H423V317Z" />
<glyph unicode="&#x145;" glyph-name="Ncommaaccent" horiz-adv-x="640" d="M500 -52H660L569 -205H474L500 -52ZM63 765H228L414 309Q422 287 428 268T440 233Q445 215 449 199H457V765H577V0H412L226 456Q216 479 210 498T199 533Q194 551 190 566H183V0H63V765Z" />
<glyph unicode="&#x146;" glyph-name="ncommaaccent" horiz-adv-x="640" d="M503 -52H663L572 -205H477L503 -52ZM423 317Q423 346 421 370T407 412Q384 444 337 444Q277 444 250 409T222 312V0H87V533H215V444H217Q227 464 242 482T278 515T325 537T385 545Q474
545 516 499T558 355V0H423V317Z" />
<glyph unicode="&#x147;" glyph-name="Ncaron" horiz-adv-x="640" d="M158 960H266L331 904H333L396 960H497L397 827H260L158 960ZM63 765H228L414 309Q422 287 428 268T440 233Q445 215 449 199H457V765H577V0H412L226 456Q216 479 210 498T199 533Q194 551
190 566H183V0H63V765Z" />
<glyph unicode="&#x148;" glyph-name="ncaron" horiz-adv-x="640" d="M166 788H272L340 705H341L406 788H505L399 609H273L166 788ZM423 317Q423 346 421 370T407 412Q384 444 337 444Q277 444 250 409T222 312V0H87V533H215V444H217Q227 464 242 482T278 515T325
537T385 545Q474 545 516 499T558 355V0H423V317Z" />
<glyph unicode="&#x149;" glyph-name="napostrophe" horiz-adv-x="640" d="M70 545H-15L25 765H164L70 545ZM423 317Q423 346 421 370T407 412Q384 444 337 444Q277 444 250 409T222 312V0H87V533H215V444H217Q227 464 242 482T278 515T325 537T385 545Q474 545
516 499T558 355V0H423V317Z" />
<glyph unicode="&#x14a;" glyph-name="Eng" horiz-adv-x="640" d="M287 -188V-80H324Q359 -80 382 -76T421 -62T443 -37T454 0H412L226 456Q217 479 211 499T199 534Q194 552 190 566H183V0H63V765H228L414 308Q422 286 428 267T440 232Q445 214 449 199H457V765H577V39Q577
-24 561 -67T512 -138T433 -176T324 -188H287Z" />
<glyph unicode="&#x14b;" glyph-name="eng" horiz-adv-x="640" d="M386 -204Q359 -204 343 -201T321 -196V-97Q326 -99 335 -100T359 -102Q394 -102 408 -85T423 -26V317Q423 346 421 370T407 412Q396 429 378 436T337 444Q276 444 249 409T222 312V0H87V533H215V444H217Q227
464 242 482T278 515T325 537T385 545Q475 545 516 499T558 355V-29Q558 -79 545 -112T510 -166T455 -195T386 -204Z" />
<glyph unicode="&#x14c;" glyph-name="Omacron" horiz-adv-x="640" d="M154 939H487V840H154V939ZM44 380Q44 585 113 680T320 776Q464 776 530 682T596 380Q596 175 529 80T320 -16Q174 -16 109 79T44 380ZM320 92Q356 92 380 107T420 156T442 245T449 380Q449
461 442 516T419 606T379 654T320 669Q284 669 260 654T220 605T199 516T192 380Q192 300 198 246T220 157T259 107T320 92Z" />
<glyph unicode="&#x14d;" glyph-name="omacron" horiz-adv-x="640" d="M154 731H487V631H154V731ZM319 -15Q257 -15 208 4T126 60T75 149T57 266Q57 399 126 472T320 546Q443 546 513 473T583 266Q583 200 565 148T512 60T429 5T319 -15ZM320 450Q287 450 264
437T227 399T205 340T198 266Q198 224 205 190T226 132T264 95T320 81Q353 81 376 94T414 133T435 191T442 266Q442 307 435 341T413 399T375 436T320 450Z" />
<glyph unicode="&#x14e;" glyph-name="Obreve" horiz-adv-x="640" d="M258 971Q262 940 279 926T323 911Q349 911 366 925T389 971H483Q479 891 433 856T320 820Q287 820 259 828T208 855T173 902T158 971H258ZM44 380Q44 585 113 680T320 776Q464 776 530 682T596
380Q596 175 529 80T320 -16Q174 -16 109 79T44 380ZM320 92Q356 92 380 107T420 156T442 245T449 380Q449 461 442 516T419 606T379 654T320 669Q284 669 260 654T220 605T199 516T192 380Q192 300 198 246T220 157T259 107T320 92Z" />
<glyph unicode="&#x14f;" glyph-name="obreve" horiz-adv-x="640" d="M319 -15Q257 -15 208 4T126 60T75 149T57 266Q57 399 126 472T320 546Q443 546 513 473T583 266Q583 200 565 148T512 60T429 5T319 -15ZM320 450Q287 450 264 437T227 399T205 340T198 266Q198
224 205 190T226 132T264 95T320 81Q353 81 376 94T414 133T435 191T442 266Q442 307 435 341T413 399T375 436T320 450ZM256 788Q256 748 275 729T324 709Q354 709 373 728T393 788H484Q484 743 472 711T437 657T385 626T321 616Q287 616 258 626T206 657T172
710T159 788H256Z" />
<glyph unicode="&#x150;" glyph-name="Ohungarumlaut" horiz-adv-x="640" d="M395 970H527L453 827H358L395 970ZM219 970H351L285 827H190L219 970ZM44 380Q44 585 113 680T320 776Q464 776 530 682T596 380Q596 175 529 80T320 -16Q174 -16 109 79T44 380ZM320
92Q356 92 380 107T420 156T442 245T449 380Q449 461 442 516T419 606T379 654T320 669Q284 669 260 654T220 605T199 516T192 380Q192 300 198 246T220 157T259 107T320 92Z" />
<glyph unicode="&#x151;" glyph-name="ohungarumlaut" horiz-adv-x="640" d="M419 788H551L455 609H359L419 788ZM242 788H374L287 609H190L242 788ZM319 -15Q257 -15 208 4T126 60T75 149T57 266Q57 399 126 472T320 546Q443 546 513 473T583 266Q583 200 565
148T512 60T429 5T319 -15ZM320 450Q287 450 264 437T227 399T205 340T198 266Q198 224 205 190T226 132T264 95T320 81Q353 81 376 94T414 133T435 191T442 266Q442 307 435 341T413 399T375 436T320 450Z" />
<glyph unicode="&#x152;" glyph-name="OE" horiz-adv-x="640" d="M311 660Q273 660 246 645T200 597T174 511T165 381Q165 305 173 253T199 167T244 119T311 104V660ZM311 0Q245 0 192 20T101 87T44 205T24 382Q24 485 43 557T100 676T192 743T317 765V765H625V656H437V437H602V330H437V109H633V0H311Z"
/>
<glyph unicode="&#x153;" glyph-name="oe" horiz-adv-x="640" d="M498 326Q497 386 485 421T437 456Q403 456 389 421T372 319H498V326ZM201 82Q239 82 251 129T263 267Q263 359 251 405T201 451Q164 451 151 408T137 267Q137 168 150 125T201 82ZM310 66Q293
30 264 8T189 -14Q150 -14 119 0T65 48T32 135T20 267Q20 343 32 396T66 482T120 531T191 546Q241 546 272 526T321 469H324Q359 546 451 546Q496 546 526 527T575 475T602 398T610 301V235L372 233Q372 150 386 117T438 83Q467 83 479 102T494 150H607Q599 72
556 30T443 -12Q395 -12 364 6T314 66H310Z" />
<glyph unicode="&#x154;" glyph-name="Racute" horiz-adv-x="640" d="M304 960H472L364 827H255L304 960ZM307 413Q368 413 404 442T440 537Q440 603 405 630T310 657H210V413H307ZM299 301H210V0H72V765H314Q359 765 399 758T474 734Q523 709 552 663T581 544Q581
495 568 459T533 396T485 354T434 328V325L598 0H446L299 301Z" />
<glyph unicode="&#x155;" glyph-name="racute" horiz-adv-x="640" d="M350 788H516L399 609H294L350 788ZM454 427Q363 427 316 374T269 227V0H135V533H264V408H266Q295 482 345 512T468 543Q494 543 521 538T566 524V408Q544 416 517 421T454 427Z" />
<glyph unicode="&#x156;" glyph-name="Rcommaaccent" horiz-adv-x="640" d="M498 -52H658L567 -205H472L498 -52ZM307 413Q368 413 404 442T440 537Q440 603 405 630T310 657H210V413H307ZM299 301H210V0H72V765H314Q359 765 399 758T474 734Q523 709 552 663T581
544Q581 495 568 459T533 396T485 354T434 328V325L598 0H446L299 301Z" />
<glyph unicode="&#x157;" glyph-name="rcommaaccent" horiz-adv-x="640" d="M121 -52H281L190 -205H95L121 -52ZM454 427Q363 427 316 374T269 227V0H135V533H264V408H266Q295 482 345 512T468 543Q494 543 521 538T566 524V408Q544 416 517 421T454 427Z" />
<glyph unicode="&#x158;" glyph-name="Rcaron" horiz-adv-x="640" d="M402 960H510L575 904H577L640 960H741L641 827H504L402 960ZM307 413Q368 413 404 442T440 537Q440 603 405 630T310 657H210V413H307ZM299 301H210V0H72V765H314Q359 765 399 758T474 734Q523
709 552 663T581 544Q581 495 568 459T533 396T485 354T434 328V325L598 0H446L299 301Z" />
<glyph unicode="&#x159;" glyph-name="rcaron" horiz-adv-x="640" d="M180 788H286L354 705H355L420 788H519L413 609H287L180 788ZM454 427Q363 427 316 374T269 227V0H135V533H264V408H266Q295 482 345 512T468 543Q494 543 521 538T566 524V408Q544 416 517
421T454 427Z" />
<glyph unicode="&#x15a;" glyph-name="Sacute" horiz-adv-x="640" d="M449 558Q447 581 439 601T416 638T378 663T323 672Q268 672 236 643T203 568Q203 520 226 497T302 461L403 438Q503 415 551 364T600 223Q600 110 528 47T323 -16Q193 -16 121 45T42 218H178Q183
164 217 128T324 91Q395 91 428 123T462 204Q462 251 438 277T350 318L252 340Q167 359 117 409T67 555Q67 603 84 643T135 713T217 760T325 777Q450 777 513 719T584 558H449ZM315 960H483L375 827H266L315 960Z" />
<glyph unicode="&#x15b;" glyph-name="sacute" horiz-adv-x="640" d="M327 788H493L376 609H271L327 788ZM420 387Q412 450 322 450Q276 450 251 434T226 391Q226 363 243 350T304 330L395 315Q484 301 520 264T557 166Q557 77 494 32T320 -14Q205 -14 147 28T81
155H207Q213 120 237 101T320 81Q430 81 430 145Q430 172 412 184T348 205L254 220Q220 225 192 236T144 266T112 312T100 377Q100 413 115 444T158 497T228 533T323 546Q379 546 420 534T488 500T529 449T547 387H420Z" />
<glyph unicode="&#x15c;" glyph-name="Scircumflex" horiz-adv-x="640" d="M498 827H390L325 883H324L260 827H159L259 960H397L498 827ZM449 558Q447 581 439 601T416 638T378 663T323 672Q268 672 236 643T203 568Q203 520 226 497T302 461L403 438Q503 415
551 364T600 223Q600 110 528 47T323 -16Q193 -16 121 45T42 218H178Q183 164 217 128T324 91Q395 91 428 123T462 204Q462 251 438 277T350 318L252 340Q167 359 117 409T67 555Q67 603 84 643T135 713T217 760T325 777Q450 777 513 719T584 558H449Z" />
<glyph unicode="&#x15d;" glyph-name="scircumflex" horiz-adv-x="640" d="M498 609H392L324 692H323L257 609H159L266 788H391L498 609ZM420 387Q412 450 322 450Q276 450 251 434T226 391Q226 363 243 350T304 330L395 315Q484 301 520 264T557 166Q557 77 494
32T320 -14Q205 -14 147 28T81 155H207Q213 120 237 101T320 81Q430 81 430 145Q430 172 412 184T348 205L254 220Q220 225 192 236T144 266T112 312T100 377Q100 413 115 444T158 497T228 533T323 546Q379 546 420 534T488 500T529 449T547 387H420Z" />
<glyph unicode="&#x15e;" glyph-name="Scedilla" horiz-adv-x="640" d="M319 -214Q265 -214 240 -193T210 -138H294Q300 -157 325 -157Q358 -157 358 -125Q358 -93 326 -93Q308 -93 297 -106H219L265 -12Q162 1 105 60T42 218H178Q183 164 217 128T324 91Q395
91 428 123T462 204Q462 251 438 277T350 318L252 340Q167 359 117 409T67 555Q67 603 84 643T135 713T217 760T325 777Q450 777 513 719T584 558H449Q447 581 439 601T416 638T378 663T323 672Q268 672 236 643T203 568Q203 520 226 497T302 461L403 438Q503 415
551 364T600 223Q600 110 528 47T325 -16L314 -39H344Q389 -39 414 -59T439 -118Q439 -159 411 -186T319 -214Z" />
<glyph unicode="&#x15f;" glyph-name="scedilla" horiz-adv-x="640" d="M313 -214Q259 -214 234 -193T204 -138H288Q294 -157 319 -157Q352 -157 352 -125Q352 -93 320 -93Q302 -93 291 -106H213L260 -11Q175 0 132 41T81 155H207Q213 120 237 101T320 81Q430
81 430 145Q430 172 412 184T348 205L254 220Q220 225 192 236T144 266T112 312T100 377Q100 413 115 444T158 497T228 533T323 546Q379 546 420 534T488 500T529 449T547 387H420Q412 450 322 450Q276 450 251 434T226 391Q226 363 243 350T304 330L395 315Q484
301 520 264T557 166Q557 77 494 32T320 -14L308 -39H338Q383 -39 408 -59T433 -118Q433 -159 405 -186T313 -214Z" />
<glyph unicode="&#x160;" glyph-name="Scaron" horiz-adv-x="640" d="M158 960H266L331 904H333L396 960H497L397 827H260L158 960ZM449 558Q447 581 439 601T416 638T378 663T323 672Q268 672 236 643T203 568Q203 520 226 497T302 461L403 438Q503 415 551 364T600
223Q600 110 528 47T323 -16Q193 -16 121 45T42 218H178Q183 164 217 128T324 91Q395 91 428 123T462 204Q462 251 438 277T350 318L252 340Q167 359 117 409T67 555Q67 603 84 643T135 713T217 760T325 777Q450 777 513 719T584 558H449Z" />
<glyph unicode="&#x161;" glyph-name="scaron" horiz-adv-x="640" d="M159 788H265L333 705H334L399 788H498L392 609H266L159 788ZM420 387Q412 450 322 450Q276 450 251 434T226 391Q226 363 243 350T304 330L395 315Q484 301 520 264T557 166Q557 77 494 32T320
-14Q205 -14 147 28T81 155H207Q213 120 237 101T320 81Q430 81 430 145Q430 172 412 184T348 205L254 220Q220 225 192 236T144 266T112 312T100 377Q100 413 115 444T158 497T228 533T323 546Q379 546 420 534T488 500T529 449T547 387H420Z" />
<glyph unicode="&#x162;" glyph-name="Tcommaaccent" horiz-adv-x="640" d="M493 -52H653L562 -205H467L493 -52ZM603 654H389V0H250V654H37V765H603V654Z" />
<glyph unicode="&#x163;" glyph-name="tcommaaccent" horiz-adv-x="640" d="M315 -52H475L384 -205H289L315 -52ZM228 427H53V529H172Q210 529 224 543T238 597V698H360V533H557V427H361V182Q361 134 382 116T451 97Q483 97 505 101T558 114V10Q535 3 502 -4T417
-11Q326 -11 277 31T228 159V427Z" />
<glyph unicode="&#x164;" glyph-name="Tcaron" horiz-adv-x="640" d="M151 960H259L324 904H326L389 960H490L390 827H253L151 960ZM603 654H389V0H250V654H37V765H603V654Z" />
<glyph unicode="&#x165;" glyph-name="tcaron" horiz-adv-x="640" d="M453 788H583L506 585H433L453 788ZM228 427H53V529H172Q210 529 224 543T238 597V698H360V533H557V427H361V182Q361 134 382 116T451 97Q483 97 505 101T558 114V10Q535 3 502 -4T417 -11Q326
-11 277 31T228 159V427Z" />
<glyph unicode="&#x166;" glyph-name="Tbar" horiz-adv-x="640" d="M389 0H250V399H103V495H250V654H37V765H603V654H389V495H537V399H389V0Z" />
<glyph unicode="&#x167;" glyph-name="tbar" horiz-adv-x="640" d="M558 10Q535 3 502 -4T417 -11Q326 -11 277 31T228 159V232H53V330H228V427H53V529H172Q210 529 224 543T238 597V698H360V533H557V427H361V330H557V232H361V182Q361 134 382 116T451 97Q483
97 505 101T558 114V10V10Z" />
<glyph unicode="&#x168;" glyph-name="Utilde" horiz-adv-x="640" d="M61 765H199V256Q199 176 227 137T322 98Q389 98 417 137T445 256V765H578V243Q578 175 559 126T506 46T425 -1T319 -16Q261 -16 214 -2T132 44T80 125T61 243V765ZM146 821Q147 884 175 926T263
968Q285 968 305 961T343 946T377 931T408 924Q427 924 436 937T447 972H532Q531 940 524 914T503 867T467 836T415 825Q393 825 373 831T336 846T302 861T271 868Q234 868 231 821H146V821Z" />
<glyph unicode="&#x169;" glyph-name="utilde" horiz-adv-x="640" d="M217 216Q217 187 220 163T234 121Q245 104 262 97T303 89Q362 89 390 128T419 243V533H554V0H424V88H422Q402 47 362 18T258 -11Q170 -11 127 33T83 172V533H217V216ZM134 613Q134 646 141
675T162 725T198 758T250 770Q271 770 291 762T331 745T366 728T397 720Q414 720 424 732T436 774H524Q524 740 517 711T496 661T461 628T408 616Q387 616 367 624T327 641T292 658T261 666Q244 666 234 653T222 613H134V613Z" />
<glyph unicode="&#x16a;" glyph-name="Umacron" horiz-adv-x="640" d="M61 765H199V256Q199 176 227 137T322 98Q389 98 417 137T445 256V765H578V243Q578 175 559 126T506 46T425 -1T319 -16Q261 -16 214 -2T132 44T80 125T61 243V765ZM157 939H490V840H157V939Z" />
<glyph unicode="&#x16b;" glyph-name="umacron" horiz-adv-x="640" d="M217 216Q217 187 220 163T234 121Q245 104 262 97T303 89Q362 89 390 128T419 243V533H554V0H424V88H422Q402 47 362 18T258 -11Q170 -11 127 33T83 172V533H217V216ZM156 731H489V631H156V731Z" />
<glyph unicode="&#x16c;" glyph-name="Ubreve" horiz-adv-x="640" d="M61 765H199V256Q199 176 227 137T322 98Q389 98 417 137T445 256V765H578V243Q578 175 559 126T506 46T425 -1T319 -16Q261 -16 214 -2T132 44T80 125T61 243V765ZM261 971Q265 940 282 926T326
911Q352 911 369 925T392 971H486Q482 891 436 856T323 820Q290 820 262 828T211 855T176 902T161 971H261Z" />
<glyph unicode="&#x16d;" glyph-name="ubreve" horiz-adv-x="640" d="M217 216Q217 187 220 163T234 121Q245 104 262 97T303 89Q362 89 390 128T419 243V533H554V0H424V88H422Q402 47 362 18T258 -11Q170 -11 127 33T83 172V533H217V216ZM257 788Q257 748 276
729T325 709Q355 709 374 728T394 788H485Q485 743 473 711T438 657T386 626T322 616Q288 616 259 626T207 657T173 710T160 788H257Z" />
<glyph unicode="&#x16e;" glyph-name="Uring" horiz-adv-x="640" d="M61 765H199V256Q199 176 227 137T322 98Q389 98 417 137T445 256V765H578V243Q578 175 559 126T506 46T425 -1T319 -16Q261 -16 214 -2T132 44T80 125T61 243V765ZM320 1042Q292 1042 269 1051T228
1077T202 1117T192 1168Q192 1195 201 1218T228 1259T268 1286T320 1296Q348 1296 371 1286T412 1259T439 1219T449 1168Q449 1141 440 1118T413 1078T372 1052T320 1042ZM320 1234Q294 1234 278 1215T261 1168Q261 1141 277 1123T320 1104Q347 1104 363 1122T380
1168Q380 1195 364 1214T320 1234Z" />
<glyph unicode="&#x16f;" glyph-name="uring" horiz-adv-x="640" d="M194 964Q194 991 203 1014T230 1054T270 1081T322 1091Q350 1091 373 1082T414 1055T441 1014T451 964Q451 937 442 914T415 874T374 848T322 838Q294 838 271 847T230 873T204 913T194 964ZM322
899Q349 899 365 917T382 964Q382 991 366 1010T322 1030Q296 1030 280 1011T263 964Q263 936 279 918T322 899ZM217 216Q217 187 220 163T234 121Q245 104 262 97T303 89Q362 89 390 128T419 243V533H554V0H424V88H422Q402 47 362 18T258 -11Q170 -11 127 33T83
172V533H217V216Z" />
<glyph unicode="&#x170;" glyph-name="Uhungarumlaut" horiz-adv-x="640" d="M402 970H534L460 827H365L402 970ZM226 970H358L292 827H197L226 970ZM61 765H199V256Q199 176 227 137T322 98Q389 98 417 137T445 256V765H578V243Q578 175 559 126T506 46T425 -1T319
-16Q261 -16 214 -2T132 44T80 125T61 243V765Z" />
<glyph unicode="&#x171;" glyph-name="uhungarumlaut" horiz-adv-x="640" d="M217 216Q217 187 220 163T234 121Q245 104 262 97T303 89Q362 89 390 128T419 243V533H554V0H424V88H422Q402 47 362 18T258 -11Q170 -11 127 33T83 172V533H217V216ZM421 788H553L457
609H361L421 788ZM244 788H376L289 609H192L244 788Z" />
<glyph unicode="&#x172;" glyph-name="Uogonek" horiz-adv-x="640" d="M377 -188Q303 -188 271 -163T239 -97Q239 -72 254 -52T301 -18V-14Q189 -11 125 51T61 243V765H199V256Q199 176 227 137T322 98Q389 98 417 137T445 256V765H578V243Q578 187 566 146T532
75T483 27T421 -2Q379 -15 362 -28T344 -65Q344 -105 402 -106V-188H377Z" />
<glyph unicode="&#x173;" glyph-name="uogonek" horiz-adv-x="640" d="M554 -188H529Q456 -188 424 -163T392 -97Q392 -68 411 -43T473 0H424V88H422Q402 47 362 18T258 -11Q170 -11 127 33T83 172V533H217V216Q217 187 220 163T234 121Q245 104 262 97T303 89Q362
89 390 128T419 243V533H554V0Q499 -34 499 -67Q499 -87 512 -96T554 -106V-188Z" />
<glyph unicode="&#x174;" glyph-name="Wcircumflex" horiz-adv-x="640" d="M492 827H384L319 883H318L254 827H153L253 960H391L492 827ZM77 0L30 765H149L181 171H189Q191 194 195 219Q198 240 202 264T211 311L272 592H372L433 311Q438 288 442 264T449 219Q453
194 456 171H464L495 765H610L563 0H400L345 263Q339 291 335 318T327 367Q323 393 320 416H313Q311 393 307 367Q304 345 300 318T289 264L232 0H77Z" />
<glyph unicode="&#x175;" glyph-name="wcircumflex" horiz-adv-x="640" d="M495 609H389L321 692H320L254 609H156L263 788H388L495 609ZM32 533H146L183 197Q185 182 186 166T188 135Q189 118 190 103H197Q197 118 199 135Q200 149 202 166T206 198L254 533H388L436
196Q438 181 439 165T443 135Q444 119 445 103H452Q453 118 454 135Q455 149 456 165T459 197L496 533H607L528 0H378L335 309Q332 327 330 345T326 379Q324 397 323 413H316Q315 397 313 379Q311 364 309 346T305 309L262 0H112L32 533Z" />
<glyph unicode="&#x176;" glyph-name="Ycircumflex" horiz-adv-x="640" d="M251 324L21 765H170L322 461H326L477 765H619L389 327V0H251V324ZM494 827H386L321 883H320L256 827H155L255 960H393L494 827Z" />
<glyph unicode="&#x177;" glyph-name="ycircumflex" horiz-adv-x="640" d="M54 533H193L301 232Q309 211 313 194T322 162Q326 146 329 133H332Q335 146 339 162Q343 176 348 193T361 232L465 533H597L387 -23Q369 -70 350 -103T306 -158T246 -189T164 -199Q129
-199 108 -196T79 -191V-85Q90 -87 107 -89T143 -91Q166 -91 183 -88T212 -77T234 -56T252 -20L259 -2L54 533ZM503 609H397L329 692H328L262 609H164L271 788H396L503 609Z" />
<glyph unicode="&#x178;" glyph-name="Ydieresis" horiz-adv-x="640" d="M251 324L21 765H170L322 461H326L477 765H619L389 327V0H251V324ZM363 972H517V821H363V972ZM132 972H286V821H132V972Z" />
<glyph unicode="&#x179;" glyph-name="Zacute" horiz-adv-x="640" d="M311 960H479L371 827H262L311 960ZM70 765H582V667L210 112H588V0H53V98L426 654H70V765Z" />
<glyph unicode="&#x17a;" glyph-name="zacute" horiz-adv-x="640" d="M321 788H487L370 609H265L321 788ZM95 533H542V433L240 104H550V0H85V99L386 429H95V533Z" />
<glyph unicode="&#x17b;" glyph-name="Zdotaccent" horiz-adv-x="640" d="M70 765H582V667L210 112H588V0H53V98L426 654H70V765ZM247 972H402V822H247V972Z" />
<glyph unicode="&#x17c;" glyph-name="zdotaccent" horiz-adv-x="640" d="M95 533H542V433L240 104H550V0H85V99L386 429H95V533ZM243 763H399V611H243V763Z" />
<glyph unicode="&#x17d;" glyph-name="Zcaron" horiz-adv-x="640" d="M157 960H265L330 904H332L395 960H496L396 827H259L157 960ZM70 765H582V667L210 112H588V0H53V98L426 654H70V765Z" />
<glyph unicode="&#x17e;" glyph-name="zcaron" horiz-adv-x="640" d="M156 788H262L330 705H331L396 788H495L389 609H263L156 788ZM95 533H542V433L240 104H550V0H85V99L386 429H95V533Z" />
<glyph unicode="&#x192;" glyph-name="florin" horiz-adv-x="640" d="M293 -189H163L233 349H50V454H246L264 592Q278 699 330 746T471 793Q505 793 529 789T579 780V675Q571 677 546 681T493 685Q476 685 461 681T432 667T410 638T397 591L379 454H579V349H365L293
-189Z" />
<glyph unicode="&#x1fa;" glyph-name="Aringacute" horiz-adv-x="640" d="M310 654Q310 652 308 637T302 599T293 547T281 489L238 295H394L350 489Q343 519 338 549T330 602Q326 629 323 654H310ZM419 190H214L168 0H34L223 765H416L606 0H465L419 190ZM319 1194H487L379
1061H270L319 1194ZM320 1042Q292 1042 269 1051T228 1077T202 1117T192 1168Q192 1195 201 1218T228 1259T268 1286T320 1296Q348 1296 371 1286T412 1259T439 1219T449 1168Q449 1141 440 1118T413 1078T372 1052T320 1042ZM320 1234Q294 1234 278 1215T261 1168Q261
1141 277 1123T320 1104Q347 1104 363 1122T380 1168Q380 1195 364 1214T320 1234Z" />
<glyph unicode="&#x1fb;" glyph-name="aringacute" horiz-adv-x="640" d="M205 155Q205 120 226 103T282 85Q305 85 327 94T367 121T396 168T407 233V240Q336 236 295 232T234 213Q219 202 212 187T205 155ZM413 74Q391 38 351 14T251 -11Q213 -11 181 -2T124
26T85 76T71 150Q71 241 152 284Q173 295 197 302T252 314T321 321T407 326V351Q407 451 314 451Q266 451 245 429T222 375H93Q95 412 110 443T154 497T221 532T312 545Q364 545 405 535T474 500T518 438T533 346V134Q533 116 540 109T566 102H589V0H527Q478 0
452 15T417 74H413ZM197 956Q197 983 206 1006T233 1046T273 1073T325 1083Q353 1083 376 1074T417 1047T444 1006T454 956Q454 929 445 906T418 866T377 840T325 830Q297 830 274 839T233 865T207 905T197 956ZM325 891Q352 891 368 909T385 956Q385 983 369 1002T325
1022Q299 1022 283 1003T266 956Q266 928 282 910T325 891ZM321 990H489L381 857H272L321 990Z" />
<glyph unicode="&#x1fc;" glyph-name="AEacute" horiz-adv-x="640" d="M384 960H552L444 827H335L384 960ZM308 656H278L191 303H308V656ZM116 0H-13L187 765H625V656H436V437H602V330H436V109H633V0H308V199H165L116 0Z" />
<glyph unicode="&#x1fd;" glyph-name="aeacute" horiz-adv-x="640" d="M329 788H495L378 609H273L329 788ZM496 326Q495 389 482 422T433 456Q398 456 385 421T369 318H496V326ZM191 87Q225 87 241 116T257 199V238Q211 239 191 233T159 216Q150 207 144 193T138
158Q138 120 152 104T191 87ZM604 150Q596 72 554 31T437 -11Q383 -11 352 13T306 75H302Q281 34 250 12T168 -10Q101 -10 64 31T27 148Q27 233 87 279Q116 302 154 310T257 318V359Q257 403 247 428T204 453Q173 453 162 432T149 379H39Q42 454 84 500T202 546Q250
546 278 528T320 483H323Q340 511 368 528T443 546Q489 546 521 528T572 476T599 395T608 290V238H369Q370 151 384 117T436 83Q464 83 476 102T492 150H604Z" />
<glyph unicode="&#x1fe;" glyph-name="Oslashacute" horiz-adv-x="640" d="M320 671Q284 671 259 656T219 606T196 514T189 374Q189 339 190 309T194 253L421 608Q405 642 381 656T320 671ZM320 90Q357 90 382 105T422 155T444 246T451 385Q451 460 445 514L216
156Q231 121 256 106T320 90ZM596 380Q596 175 529 80T320 -16Q209 -16 144 43L101 -25H17L98 102Q44 198 44 380Q44 585 113 680T320 776Q429 776 492 720L539 793H623L539 662Q596 564 596 380ZM315 960H483L375 827H266L315 960Z" />
<glyph unicode="&#x1ff;" glyph-name="oslashacute" horiz-adv-x="640" d="M320 454Q286 454 262 440T223 402T200 343T193 267Q193 214 202 175L404 425Q375 454 320 454ZM320 79Q354 79 378 93T417 131T439 190T446 267Q446 293 445 315T438 357L236 108Q265
79 320 79ZM582 267Q582 202 563 151T510 62T427 6T319 -14Q231 -14 169 26L120 -34H32L117 71Q57 145 57 267Q57 331 75 382T127 470T210 526T320 546Q408 546 470 506L517 564H606L522 460Q582 388 582 267ZM323 788H489L372 609H267L323 788Z" />
<glyph unicode="&#x218;" glyph-name="Scommaaccent" horiz-adv-x="640" d="M504 -52H664L573 -205H478L504 -52ZM449 558Q447 581 439 601T416 638T378 663T323 672Q268 672 236 643T203 568Q203 520 226 497T302 461L403 438Q503 415 551 364T600 223Q600 110
528 47T323 -16Q193 -16 121 45T42 218H178Q183 164 217 128T324 91Q395 91 428 123T462 204Q462 251 438 277T350 318L252 340Q167 359 117 409T67 555Q67 603 84 643T135 713T217 760T325 777Q450 777 513 719T584 558H449Z" />
<glyph unicode="&#x219;" glyph-name="scommaaccent" horiz-adv-x="640" d="M498 -52H658L567 -205H472L498 -52ZM420 387Q412 450 322 450Q276 450 251 434T226 391Q226 363 243 350T304 330L395 315Q484 301 520 264T557 166Q557 77 494 32T320 -14Q205 -14
147 28T81 155H207Q213 120 237 101T320 81Q430 81 430 145Q430 172 412 184T348 205L254 220Q220 225 192 236T144 266T112 312T100 377Q100 413 115 444T158 497T228 533T323 546Q379 546 420 534T488 500T529 449T547 387H420Z" />
<glyph unicode="&#x21a;" glyph-name="uni021A" horiz-adv-x="640" d="M493 -52H653L562 -205H467L493 -52ZM603 654H389V0H250V654H37V765H603V654Z" />
<glyph unicode="&#x21b;" glyph-name="uni021B" horiz-adv-x="640" d="M315 -52H475L384 -205H289L315 -52ZM228 427H53V529H172Q210 529 224 543T238 597V698H360V533H557V427H361V182Q361 134 382 116T451 97Q483 97 505 101T558 114V10Q535 3 502 -4T417 -11Q326
-11 277 31T228 159V427Z" />
<glyph unicode="&#x237;" glyph-name="uni0237" horiz-adv-x="640" d="M245 -198Q210 -198 180 -193T128 -182V-75Q148 -79 175 -83T236 -87Q276 -87 299 -68T322 0V428H128V533H456V-11Q456 -61 439 -96T392 -154T325 -187T245 -198Z" />
<glyph unicode="&#x2c6;" glyph-name="circumflex" horiz-adv-x="640" d="M490 609H384L316 692H315L249 609H151L258 788H383L490 609Z" />
<glyph unicode="&#x2c7;" glyph-name="caron" horiz-adv-x="640" d="M151 788H257L325 705H326L391 788H490L384 609H258L151 788Z" />
<glyph unicode="&#x2d8;" glyph-name="breve" horiz-adv-x="640" d="M254 788Q254 748 273 729T322 709Q352 709 371 728T391 788H482Q482 743 470 711T435 657T383 626T319 616Q285 616 256 626T204 657T170 710T157 788H254Z" />
<glyph unicode="&#x2d9;" glyph-name="dotaccent" horiz-adv-x="640" d="M242 763H398V611H242V763Z" />
<glyph unicode="&#x2da;" glyph-name="ring" horiz-adv-x="640" d="M188 709Q188 736 197 759T224 799T264 826T316 836Q344 836 367 827T408 800T435 759T445 709Q445 682 436 659T409 619T368 593T316 583Q288 583 265 592T224 618T198 658T188 709ZM316 644Q343
644 359 662T376 709Q376 736 360 755T316 775Q290 775 274 756T257 709Q257 681 273 663T316 644Z" />
<glyph unicode="&#x2db;" glyph-name="ogonek" horiz-adv-x="640" d="M257 15Q258 14 265 12T282 7Q293 3 305 0Q250 -34 250 -67Q250 -87 262 -96T305 -106V-188H280Q207 -188 175 -163T143 -97Q143 -61 170 -33T257 15Z" />
<glyph unicode="&#x2dc;" glyph-name="tilde" horiz-adv-x="640" d="M133 613Q133 646 140 675T161 725T197 758T249 770Q270 770 290 762T330 745T365 728T396 720Q413 720 423 732T435 774H523Q523 740 516 711T495 661T460 628T407 616Q386 616 366 624T326
641T291 658T260 666Q243 666 233 653T221 613H133V613Z" />
<glyph unicode="&#x2dd;" glyph-name="hungarumlaut" horiz-adv-x="640" d="M372 788H504L408 609H312L372 788ZM195 788H327L240 609H143L195 788Z" />
</font>
</defs>
</svg>
